<!-- Generator: Adobe Illustrator 22.1.0, SVG Export Plug-In  -->
<svg version="1.1"
	 xmlns="http://www.w3.org/2000/svg" xmlns:xlink="http://www.w3.org/1999/xlink" xmlns:a="http://ns.adobe.com/AdobeSVGViewerExtensions/3.0/"
	 x="0px" y="0px" width="420.509px" height="180.621px" viewBox="0 0 420.509 180.621"
	 style="enable-background:new 0 0 420.509 180.621;" xml:space="preserve">
<style type="text/css">
	.st0{fill:none;}
</style>
<defs>
</defs>
<g>
	<path class="st0" d="M0,0c0,0,70.555,180.621,420.509,180.621"/>
	<path d="M74.458,74.341l2.472,1.96l-6.146,7.754l-2.473-1.96L74.458,74.341z M76.176,71.809c0.624-0.787,1.746-0.916,2.533-0.293
		c0.786,0.624,0.916,1.746,0.292,2.532c-0.623,0.787-1.745,0.917-2.532,0.293C75.683,73.718,75.553,72.595,76.176,71.809z"/>
	<path d="M81.222,92.295c0.147,1.106,0.862,2.013,1.8,2.674c0.854,0.603,2.307,1.102,3.369-0.405l0.438-0.619
		c-1.225,0.314-2.3,0.132-3.221-0.518c-1.976-1.394-2.608-3.871-0.684-6.6c1.878-2.662,4.41-2.981,6.436-1.552
		c0.903,0.638,1.492,1.579,1.578,2.844l0.674-0.954l2.561,1.807l-5.196,7.365c-2.326,3.298-5.434,2.158-7.442,0.741
		c-1.39-0.98-2.297-2.147-2.732-3.733L81.222,92.295z M89.639,89.96c-0.011-0.659-0.496-1.428-1.032-1.806
		c-1.021-0.721-2.211-0.633-3.038,0.539c-0.838,1.188-0.522,2.339,0.499,3.06c0.535,0.378,1.423,0.577,2.048,0.366L89.639,89.96z"/>
	<path d="M97.56,91.223l2.632,1.739l-5.454,8.254l-2.632-1.739L97.56,91.223z M99.054,88.552c0.554-0.837,1.66-1.063,2.498-0.51
		c0.837,0.553,1.063,1.66,0.51,2.497c-0.554,0.838-1.66,1.063-2.498,0.511C98.727,90.497,98.501,89.39,99.054,88.552z"/>
	<path d="M102.458,94.479l2.818,1.75l-1.41,6.5l5.22-4.134l2.835,1.761l-8.522,6.35l-2.854-1.772L102.458,94.479z"/>
	<path d="M118.314,103.767c2.54,1.458,3.317,4.383,1.646,7.296l-0.337,0.586l-6.109-3.507c-0.299,0.892,0.029,2.048,1.308,2.781
		c0.764,0.438,1.79,0.626,2.514,0.475l0.177,2.368c-1.291,0.274-2.926-0.168-4.24-0.923c-2.646-1.519-3.7-4.413-2.101-7.202
		C112.598,103.155,115.633,102.228,118.314,103.767z M114.497,106.346l3.535,2.028c0.275-0.645,0.331-1.771-0.931-2.494
		C115.912,105.198,114.961,105.786,114.497,106.346z"/>
	<path d="M134.409,117.45c0.549-1.077,0.179-1.749-0.697-2.195c-0.84-0.429-1.62-0.252-2.153-0.018l-2.904,5.694l-2.811-1.434
		l4.496-8.814l2.811,1.433l-0.549,1.077c0.846-0.351,2.229-0.495,3.708,0.259c2.008,1.023,2.324,2.657,1.496,4.281l-3.184,6.241
		l-2.811-1.434L134.409,117.45z"/>
	<path d="M142.82,116.945l2.846,1.361l-4.267,8.925l-2.846-1.36L142.82,116.945z M143.933,114.094
		c0.433-0.905,1.498-1.281,2.403-0.849c0.906,0.434,1.282,1.499,0.849,2.404c-0.433,0.905-1.498,1.281-2.403,0.849
		C143.877,116.065,143.501,115.001,143.933,114.094z"/>
	<path d="M153.851,121.803c1.942,0.874,2.77,2.279,2.949,3.326l-2.649,0.896c-0.119-0.683-0.547-1.279-1.312-1.624
		c-1.195-0.538-2.48-0.128-3.095,1.235c-0.613,1.363-0.077,2.615,1.118,3.153c0.767,0.345,1.514,0.232,2.095-0.112l1.078,2.597
		c-0.896,0.54-2.504,0.871-4.446-0.003c-2.82-1.27-4.073-4.125-2.796-6.964C148.062,121.489,151.031,120.534,153.851,121.803z"/>
	<path d="M164.725,126.498c2.703,1.126,3.843,3.93,2.552,7.03l-0.26,0.624l-6.504-2.709c-0.184,0.922,0.287,2.027,1.648,2.595
		c0.812,0.338,1.854,0.395,2.554,0.153l0.473,2.327c-1.246,0.435-2.924,0.202-4.322-0.381c-2.817-1.173-4.228-3.912-2.991-6.88
		C158.976,126.61,161.871,125.308,164.725,126.498z M161.263,129.537l3.762,1.567c0.192-0.675,0.105-1.798-1.237-2.357
		C162.521,128.219,161.652,128.923,161.263,129.537z"/>
	<path d="M177.36,138.699c0.466,0.869,1.72,2.028,2.816,2.432c0.884,0.325,1.355,0.171,1.504-0.233
		c0.177-0.48-0.395-0.887-1.3-1.394c-1.478-0.849-3.587-1.995-2.719-4.359c0.601-1.635,2.527-2.541,5.104-1.595
		c1.558,0.572,2.7,1.56,3.432,2.657l-1.855,1.545c-0.359-0.743-1.24-1.613-2.355-2.022c-0.692-0.255-1.258-0.2-1.405,0.203
		c-0.156,0.423,0.287,0.761,1.204,1.294c1.478,0.849,3.683,2.095,2.778,4.556c-0.65,1.77-2.688,2.504-5.36,1.522
		c-1.653-0.607-3.16-1.794-3.822-3.02L177.36,138.699z"/>
	<path d="M195.193,142.546c0.386-1.145-0.092-1.717-1.043-2.037c-0.873-0.295-1.619-0.006-2.112,0.303l-2.042,6.056l-2.989-1.008
		l4.366-12.946l2.989,1.009l-1.591,4.716c0.785-0.47,2.134-0.814,3.706-0.284c2.135,0.72,2.699,2.25,2.117,3.978l-2.252,6.677
		L193.353,148L195.193,142.546z"/>
	<path d="M203.48,140.902l3.008,0.946l-2.97,9.434l-3.008-0.946L203.48,140.902z M204.182,137.924
		c0.301-0.957,1.303-1.479,2.26-1.178c0.957,0.302,1.479,1.304,1.178,2.261c-0.302,0.957-1.304,1.479-2.261,1.177
		C204.402,139.883,203.881,138.881,204.182,137.924z"/>
	<path d="M209.098,150.203l1.276-4.301l-1.571-0.466l0.781-2.632l1.571,0.466l0.769-2.592l3.005,0.892l-0.77,2.593l1.925,0.571
		l-0.781,2.631l-1.925-0.571l-1.025,3.457c-0.163,0.55,0.028,1.055,0.559,1.213c0.334,0.099,0.703,0.08,0.836-0.009l-0.087,2.453
		c-0.479,0.242-1.306,0.296-2.425-0.036C209.311,153.301,208.555,152.029,209.098,150.203z"/>
</g>
</svg>