<!-- Generator: Adobe Illustrator 22.1.0, SVG Export Plug-In  -->
<svg version="1.1"
	 xmlns="http://www.w3.org/2000/svg" xmlns:xlink="http://www.w3.org/1999/xlink" xmlns:a="http://ns.adobe.com/AdobeSVGViewerExtensions/3.0/"
	 x="0px" y="0px" width="137.233px" height="110.171px" viewBox="0 0 137.233 110.171"
	 style="enable-background:new 0 0 137.233 110.171;" xml:space="preserve">
<defs>
</defs>
<g>
	<path d="M70.861,104.662c-1.662,0.582-2.595,1.745-3.388,3.044c-0.374,0.612-0.654,1.281-0.997,1.912
		c-0.265,0.487-0.721,0.638-1.225,0.508c-0.533-0.137-0.796-0.545-0.697-1.087c0.113-0.616,0.233-1.246,0.47-1.82
		c0.242-0.585,0.641-1.104,0.939-1.669c0.048-0.091-0.037-0.335-0.132-0.396c-0.094-0.061-0.323-0.033-0.418,0.046
		c-0.49,0.408-0.967,0.834-1.429,1.275c-0.636,0.607-1.233,1.257-1.889,1.842c-0.35,0.312-0.762,0.589-1.195,0.761
		c-0.249,0.099-0.688,0.059-0.869-0.107c-0.169-0.154-0.24-0.622-0.131-0.841c1.557-3.131,3.78-5.511,7.326-6.374
		c1.239-0.302,2.476-0.627,3.691-1.013c1.02-0.324,1.115-0.481,1.706-1.758c-2.135,0.453-4.209,0.984-6.314,1.321
		c-4.824,0.772-9.658,1.059-14.547,0.457C43.14,99.7,35.18,96.81,27.74,92.404c-1.235-0.731-2.386-1.604-3.571-2.417
		c-0.413-0.283-0.821-0.191-1.039,0.177c-0.609,1.026-1.158,2.087-1.707,3.148c-0.218,0.421-0.278,0.963-0.581,1.291
		c-0.284,0.307-0.806,0.579-1.204,0.554c-0.608-0.038-1.042-0.601-0.95-1.182c0.174-1.091,0.459-2.177,0.822-3.222
		c0.286-0.824,0.783-1.572,1.143-2.373c0.403-0.897,0.373-0.967-0.361-1.636c-2.186-1.99-4.405-3.958-6.126-6.382
		c-2.895-4.077-5.107-8.502-6.191-13.403c-0.46-2.079-0.772-4.169-0.543-6.386c0.243-2.359,0.024-4.778,0.644-7.108
		c0.779-2.927,1.333-5.952,2.789-8.633c1.1-2.026,2.473-3.91,3.808-5.797c0.732-1.035,1.553-2.042,2.489-2.889
		c1.296-1.172,2.73-2.192,4.124-3.252c0.503-0.383,1.06-0.695,1.656-1.08c-0.388-0.568-0.899-0.323-1.292-0.323
		c-4.002-0.009-7.955,0.469-11.885,1.206c-2.035,0.382-4.085,0.722-6.144,0.916c-0.921,0.087-1.902-0.146-2.815-0.388
		c-0.897-0.238-1.089-1.354-0.344-1.864c1.247-0.853,2.478-1.702,4.002-2.105c2.849-0.753,5.721-1.45,8.441-2.646
		c0.789-0.347,1.691-0.478,2.557-0.597c0.982-0.135,1.909-0.252,2.236-1.404c0.038-0.132,0.211-0.318,0.327-0.322
		c1.415-0.044,1.476-1.166,1.75-2.137c0.608-2.156,2.102-3.745,3.561-5.318c1.411-1.52,2.922-2.955,4.464-4.344
		c4.696-4.234,10.102-7.23,16.144-9.084c0.152-0.047,0.318-0.064,0.459-0.134c3.131-1.553,6.568-1.946,9.937-2.545
		c3.862-0.687,7.778-0.839,11.694-0.643c1.266,0.063,2.562,0.233,3.771,0.599c3.659,1.106,7.34,2.181,10.903,3.55
		c3.809,1.464,7.23,3.731,10.716,5.835c0.815,0.492,1.574,1.003,2.586,1.16c1.268,0.196,2.401,0.859,3.382,1.715
		c1.688,1.473,3.315,3.01,4.597,4.865c2.224,3.219,5.168,5.632,8.49,7.625c0.341,0.204,0.69,0.412,1.063,0.542
		c5.425,1.889,10.821,3.87,16.61,4.422c1.66,0.158,3.295,0.593,4.939,0.917c0.31,0.061,0.622,0.164,0.903,0.308
		c0.716,0.365,1.491,0.727,1.426,1.717c-0.067,1.015-0.469,2.031-1.46,2.27c-1.242,0.3-2.098,1.119-3.119,1.717
		c-1.441,0.844-2.81,1.869-4.345,2.474c-1.303,0.514-2.79,0.659-4.21,0.751c-1.297,0.084-2.549,0.249-3.714,0.799
		c-1.213,0.572-1.407,1.111-0.806,2.273c0.474,0.915,1.036,1.793,1.64,2.629c0.672,0.929,1.579,1.569,2.724,1.843
		c0.465,0.111,0.903,0.345,1.371,0.427c2.166,0.379,4.018,1.454,5.867,2.556c1.372,0.818,2.783,1.572,4.164,2.374
		c1.253,0.728,2.397,1.566,3.177,2.848c1.013,1.665,0.56,3.123-1.275,3.793c-0.367,0.134-0.783,0.204-1.173,0.192
		c-2.313-0.07-4.627-0.128-6.936-0.275c-3.345-0.214-6.663-0.847-10.032-0.651c-1.512,0.088-3.034,0.165-4.528,0.401
		c-3.544,0.559-7.134,0.689-10.68,1.309c-2.082,0.364-4.291,0.021-6.442-0.039c-0.633-0.018-1.266-0.245-1.892-0.216
		c-1.942,0.089-3.815-0.368-5.698-0.677c-3.146-0.517-6.282-1.107-9.399-1.776c-3.351-0.719-6.761-1.294-9.879-2.809
		c-3.719-1.807-6.972-4.185-9.12-7.843c-0.414-0.705-0.793-1.385-0.665-2.238c0.023-0.155,0.006-0.322-0.023-0.478
		c-0.431-2.312-0.314-4.59,0.306-6.863c0.271-0.994,0.059-1.265-0.796-1.725c-0.973-0.524-1.904-0.592-2.977-0.174
		c-3.645,1.422-6.425,3.812-8.388,7.179c-0.442,0.759-0.902,1.508-1.354,2.261c-2.656,4.425-6.663,6.738-11.683,7.447
		c-1.263,0.178-2.532,0.376-3.803,0.42c-3.78,0.131-7.26-0.912-10.46-2.9c-1.309-0.813-2.335-1.938-3.213-3.189
		c-0.687-0.979-1.314-2-2.027-3.092c-0.798,0.816-1.275,1.801-1.621,2.859c-1.142,3.497-2.063,7.05-2.606,10.693
		c-0.023,0.158-0.049,0.32-0.035,0.477c0.364,4.119,0.219,8.311,2.082,12.193c1.872,3.902,3.928,7.637,6.952,10.825
		c4.97,5.24,10.697,9.375,17.334,12.162c4.562,1.916,9.266,3.606,14.181,4.256c3.685,0.487,7.432,1.148,11.2,0.286
		c1.389-0.318,2.85-0.308,4.268-0.522c4.216-0.636,13.311-3.559,17.334-5.344c4.78-2.122,8.387-5.576,11.175-9.853
		c2.351-3.606,4.511-7.352,5.898-11.485c0.585-1.745,1.178-3.47,1.437-5.303c0.072-0.513,0.356-1.045,0.68-1.462
		c0.436-0.56,1.08-0.611,1.746-0.367c0.664,0.244,1.104,0.689,1.103,1.407c-0.001,0.55-0.054,1.126-0.225,1.644
		c-0.921,2.807-1.864,5.608-2.852,8.392c-0.237,0.668-0.599,1.323-1.032,1.885c-1.078,1.4-1.859,2.97-2.743,4.485
		c-3.786,6.489-8.933,11.409-16.159,13.912c-1.584,0.549-3.136,1.196-4.734,1.698c-0.929,0.291-1.504,0.792-1.806,1.715
		c-0.691,2.115-2.061,3.973-2.389,6.229c-0.115,0.79-0.207,1.583-0.329,2.371c-0.098,0.631-0.508,0.989-1.117,1.083
		c-0.588,0.091-1.178-0.429-1.267-1.172C70.938,106.558,70.924,105.69,70.861,104.662z M112.334,51.527
		c0.142,0.043,0.283,0.087,0.425,0.13c-0.146-0.038-0.292-0.076-0.438-0.115c-0.127-0.091-0.243-0.219-0.384-0.261
		c-0.126-0.037-0.28,0.021-0.421,0.038c0.118,0.043,0.232,0.098,0.353,0.128C112.021,51.485,112.179,51.502,112.334,51.527z
		 M121.454,50.569c0.135,0.045,0.269,0.089,0.404,0.134c-0.138-0.04-0.277-0.081-0.415-0.121c-0.64-0.16-1.28-0.32-1.92-0.479
		c-1.087-0.521-2.073-1.131-2.763-2.193c-0.377-0.58-0.912-1.173-1.518-1.466c-1.864-0.904-3.796-1.666-5.702-2.485
		c-0.361-0.155-0.769-0.254-1.07-0.488c-0.57-0.444-0.629-1.098-0.438-1.745c0.182-0.618,0.685-0.892,1.296-0.835
		c0.545,0.051,1.099,0.166,1.615,0.349c0.676,0.239,1.304,0.614,1.982,0.845c0.248,0.084,0.686,0.025,0.851-0.148
		c0.379-0.397,0.673-0.887,0.932-1.376c0.059-0.111-0.118-0.465-0.271-0.545c-0.345-0.181-0.746-0.253-1.12-0.382
		c-1.055-0.364-2.125-0.693-3.155-1.117c-0.573-0.236-0.817-0.884-0.679-1.393c0.272-1.001,1.252-1.613,2.198-1.217
		c2.007,0.841,4.103,1.295,6.232,1.646c0.619,0.102,1.174,0.708,1.979,0.245c-1.879-0.759-3.712-1.269-5.614-1.563
		c-0.858-0.133-1.397-0.923-1.288-1.714c0.116-0.841,0.805-1.488,1.645-1.428c0.631,0.045,1.268,0.175,1.875,0.36
		c2.515,0.767,5.022,1.563,7.527,2.363c0.515,0.165,0.929,0.613,1.567,0.42c0.452-0.137,0.953-0.106,1.414-0.223
		c0.457-0.116,0.89-0.324,1.625-0.601c-3.014-0.078-5.532-0.89-8.091-1.478c-0.749-0.172-1.341-0.498-1.343-1.419
		c-0.001-0.729-0.625-0.831-1.147-1.014c-2.259-0.794-4.536-1.54-6.768-2.403c-1.334-0.516-2.664-1.107-3.878-1.856
		c-3.434-2.117-6.35-4.815-8.736-8.091c-0.89-1.222-1.913-2.351-2.909-3.493c-0.534-0.612-1.172-1.085-2.061-1.059
		c-0.855,0.025-1.5-0.471-2.168-0.912c-1.933-1.276-3.815-2.644-5.826-3.784c-2.428-1.377-4.902-2.714-7.476-3.779
		c-2.649-1.095-5.433-1.871-8.176-2.727c-1.446-0.451-2.938-0.664-4.464-0.785c-4.012-0.319-7.949,0.387-11.916,0.682
		c-0.233,0.017-0.458,0.138-0.689,0.2c-2.766,0.742-5.497,1.591-8.231,2.447c-6.235,1.951-11.594,5.284-16.439,9.541
		c-1.256,1.103-2.406,2.35-3.469,3.642c-0.752,0.915-1.339,1.986-1.873,3.051c-0.229,0.457-0.229,1.085-0.169,1.616
		c0.062,0.549,0.621,0.657,1.079,0.804c0.148,0.047,0.351,0.113,0.406,0.228c0.535,1.122,1.643,1.451,2.636,1.931
		c1.073,0.519,1.668,1.474,2.209,2.45c0.167,0.301,0.209,0.852,0.042,1.129c-0.769,1.274-1.411,2.584-3.07,3.142
		c-3.939,1.326-6.64,4.319-9.263,7.36c-0.408,0.472-0.477,1.009-0.245,1.567c1.101,2.646,2.827,4.869,5.135,6.496
		c1.974,1.391,4.318,2.058,6.774,2.066c1.829,0.006,3.636-0.135,5.468-0.393c3.102-0.437,5.645-1.749,7.672-3.991
		c1.272-1.407,2.392-3.018,3.262-4.702c0.676-1.308,1.501-2.428,2.461-3.5c1.356-1.516,3.059-2.585,4.792-3.559
		c2.493-1.401,5.119-2.33,8.009-0.858c0.344-0.407,0.632-0.783,0.957-1.123c0.476-0.497,1.084-0.635,1.756-0.585
		c0.715,0.054,1.159,0.655,0.938,1.338c-0.097,0.298-0.245,0.59-0.417,0.853c-0.679,1.035-0.976,2.171-0.998,3.401
		c-0.009,0.475-0.053,0.969-0.197,1.418c-0.426,1.334-0.377,2.699-0.234,4.044c0.205,1.93,0.653,3.886,2.159,5.2
		c2.282,1.991,4.702,3.803,7.601,4.914c3.004,1.152,6.151,1.646,9.261,2.319c2.411,0.522,4.852,0.906,7.274,1.377
		c5.36,1.043,10.736,1.54,16.17,0.604c1.177-0.203,2.363-0.389,3.552-0.481c2.863-0.221,5.732-0.377,8.597-0.571
		c0.37-0.025,0.831,0.061,0.968-0.563c-0.556-0.078-1.119-0.086-1.637-0.243c-2.365-0.718-4.689-1.575-7.153-1.941
		c-0.613-0.091-0.931-0.607-1.053-1.184c-0.133-0.63,0.235-1.078,0.699-1.417c0.245-0.179,0.569-0.321,0.868-0.343
		c0.737-0.055,0.809-0.387,0.829-1.09c0.049-1.714,0.983-2.265,2.535-1.659c0.222,0.087,0.418,0.247,0.642,0.321
		c2.039,0.672,4.036,1.522,6.236,1.542C120.173,50.249,120.813,50.409,121.454,50.569z M126.165,54.593
		c-0.482-1.539-1.372-2.422-2.304-3.254c-0.097-0.086-0.689,0.118-0.737,0.281c-0.595,2.004-0.329,2.385,1.787,2.731
		C125.214,54.401,125.514,54.467,126.165,54.593z"/>
	<path d="M35.229,22.818c0.107-1.31,0.529-2.416,1.9-3.015c1.39-0.607,2.733-0.835,4.11-0.028c1.205,0.707,1.674,1.973,1.185,3.268
		c-0.435,1.151-1.115,2.109-2.242,2.687C38.166,26.768,35.313,25.108,35.229,22.818z"/>
	<path d="M51.415,29.597c-0.356-0.086-0.591-0.126-0.815-0.2c-0.341-0.113-0.481-0.738-0.239-1.013
		c0.052-0.059,0.088-0.146,0.153-0.179c2.052-1.046,2.72-2.987,3.267-5.015c0.186-0.688,0.382-1.379,0.647-2.039
		c0.351-0.874,1.185-1.041,1.938-0.457c0.698,0.541,1.042,1.277,0.805,2.095c-0.418,1.443-0.79,2.95-1.519,4.239
		C54.749,28.624,53.106,29.326,51.415,29.597z"/>
</g>
</svg>