<!-- Generator: Adobe Illustrator 22.1.0, SVG Export Plug-In  -->
<svg version="1.1"
	 xmlns="http://www.w3.org/2000/svg" xmlns:xlink="http://www.w3.org/1999/xlink" xmlns:a="http://ns.adobe.com/AdobeSVGViewerExtensions/3.0/"
	 x="0px" y="0px" width="730.771px" height="499.938px" viewBox="0 0 730.771 499.938"
	 style="enable-background:new 0 0 730.771 499.938;" xml:space="preserve">
<style type="text/css">
	.st0{fill:none;}
</style>
<defs>
</defs>
<g>
	<path class="st0" d="M0,300.617c0,0,748.702,335.496,730.443-300.617"/>
	<path d="M310.09,383.88c-0.49,0.492-1.469,0.769-2.42,0.663c-1.143-0.127-2.549-1.071-2.354-2.816
		c0.212-1.905,1.755-2.201,2.898-2.072c1,0.111,1.869,0.529,2.224,1.1l0.098-0.874c0.059-0.539-0.387-1.007-1.323-1.111
		c-0.714-0.079-1.556,0.116-2.21,0.509l-0.772-1.869c1.124-0.71,2.59-0.885,3.749-0.756c1.904,0.212,3.688,1.086,3.403,3.641
		l-0.517,4.636l-2.857-0.317L310.09,383.88z M310.288,382.102c-0.161-0.291-0.638-0.487-1.083-0.537
		c-0.475-0.053-1.016,0.047-1.07,0.523c-0.053,0.477,0.455,0.678,0.932,0.73c0.444,0.049,0.953-0.039,1.174-0.287L310.288,382.102z"
		/>
	<path d="M321.823,385.004c-0.722,0.668-1.478,0.867-2.257,0.793c-1.858-0.18-3.25-1.725-2.995-4.361
		c0.245-2.542,1.88-3.877,3.771-3.694c0.778,0.075,1.531,0.421,2.064,1.209l0.359-3.733l2.859,0.275l-1.02,10.597l-2.859-0.275
		L321.823,385.004z M322.211,380.985c-0.238-0.36-0.762-0.586-1.143-0.624c-0.778-0.075-1.482,0.402-1.574,1.356
		c-0.092,0.953,0.506,1.572,1.285,1.647c0.381,0.036,0.939-0.103,1.242-0.411L322.211,380.985z"/>
	<path d="M328.086,378.663l3.023,0.249l1.105,4.511l1.839-4.27l3.022,0.248l-3.604,7.441l-3.04-0.25L328.086,378.663z"/>
	<path d="M343.487,379.639c2.265,0.149,3.894,1.891,3.713,4.601l-0.038,0.589l-5.229-0.346c0.127,0.504,0.652,1.02,1.625,1.084
		c0.654,0.043,1.371-0.149,1.773-0.427l1.062,1.849c-0.809,0.602-2.199,0.813-3.348,0.737c-2.406-0.159-4.187-1.798-4.02-4.333
		C339.176,381.163,341.002,379.474,343.487,379.639z M342.022,382.663l2.535,0.17c-0.057-0.342-0.289-0.949-1.213-1.01
		C342.467,381.764,342.141,382.319,342.022,382.663z"/>
	<path d="M350.662,380.278l2.872,0.151l-0.047,0.878c0.508-0.533,1.539-0.991,2.417-0.944l-0.145,2.743
		c-0.141-0.055-0.379-0.1-0.65-0.114c-0.605-0.032-1.396,0.087-1.734,0.452l-0.247,4.689l-2.871-0.151L350.662,380.278z"/>
	<path d="M359.461,386.196l0.121-2.984l-1.276-0.051l0.101-2.49l1.276,0.052l0.085-2.106l2.874,0.116l-0.086,2.106l1.563,0.064
		l-0.1,2.488l-1.564-0.062l-0.088,2.153c-0.016,0.399,0.227,0.729,0.61,0.745c0.255,0.01,0.514-0.061,0.58-0.121l0.423,2.191
		c-0.314,0.258-0.994,0.471-1.968,0.432C360.305,388.66,359.397,387.807,359.461,386.196z"/>
	<path d="M367.4,381.012l2.871,0.084l-0.221,7.705l-2.872-0.084L367.4,381.012z M367.293,378.598
		c0.026-0.894,0.765-1.591,1.658-1.564c0.895,0.025,1.592,0.764,1.565,1.658c-0.025,0.893-0.765,1.59-1.657,1.564
		C367.965,380.23,367.269,379.491,367.293,378.598z"/>
	<path d="M374.475,385.983c0.599,0.489,1.9,1.006,2.764,1.02c0.59,0.01,0.77-0.147,0.772-0.355c0.004-0.255-0.346-0.357-1.079-0.464
		c-1.291-0.197-3.284-0.468-3.25-2.561c0.021-1.39,1.255-2.616,3.492-2.581c1.293,0.021,2.438,0.438,3.322,1.043l-1.084,1.854
		c-0.473-0.408-1.361-0.82-2.256-0.836c-0.416-0.007-0.721,0.102-0.725,0.324c-0.003,0.225,0.219,0.322,0.983,0.447
		c1.292,0.213,3.38,0.518,3.345,2.674c-0.024,1.533-1.416,2.631-3.7,2.593c-1.421-0.022-2.946-0.542-3.767-1.242L374.475,385.983z"
		/>
	<path d="M383.911,378.899c0.001-0.893,0.722-1.609,1.616-1.607c0.893,0.002,1.611,0.723,1.607,1.615
		c-0.001,0.895-0.721,1.611-1.614,1.609C384.626,380.514,383.91,379.793,383.911,378.899z M384.081,381.311l2.874,0.006
		l-0.018,7.711l-2.873-0.006L384.081,381.311z"/>
	<path d="M395.979,384.693c-0.01-0.799-0.445-1.097-1.131-1.087c-0.656,0.009-0.986,0.349-1.223,0.623l0.064,4.76l-2.875,0.038
		l-0.104-7.714l2.874-0.038l0.013,0.878c0.439-0.518,1.279-1.087,2.636-1.105c1.788-0.024,2.587,1.051,2.604,2.393l0.074,5.479
		l-2.875,0.039L395.979,384.693z"/>
	<path d="M403.736,388.732c0.611,0.569,1.496,0.794,2.327,0.767c0.67-0.023,1.776-0.316,1.731-1.672l-0.014-0.415
		c-0.629,0.771-1.338,1.085-2.135,1.111c-1.852,0.063-3.424-1.098-3.514-3.729c-0.089-2.569,1.352-3.896,3.251-3.961
		c0.798-0.027,1.557,0.218,2.204,0.932l-0.029-0.814l2.873-0.098l0.234,6.876c0.114,3.335-2.607,4.051-4.523,4.116
		c-1.324,0.045-2.516-0.266-3.549-1.029L403.736,388.732z M407.656,383.79c-0.281-0.31-0.829-0.467-1.197-0.453
		c-0.781,0.025-1.424,0.415-1.391,1.356c0.031,0.941,0.699,1.286,1.48,1.259c0.367-0.012,0.903-0.206,1.163-0.535L407.656,383.79z"
		/>
	<path d="M415.873,385.077c0.926-0.047,1.746,0.697,1.793,1.621c0.047,0.926-0.695,1.746-1.619,1.793
		c-0.927,0.048-1.748-0.694-1.795-1.619C414.205,385.946,414.947,385.124,415.873,385.077z"/>
	<path d="M425.766,386.98c-0.394,0.571-1.309,1.018-2.264,1.082c-1.148,0.079-2.699-0.601-2.818-2.354
		c-0.131-1.912,1.336-2.477,2.484-2.555c1.004-0.068,1.935,0.189,2.384,0.687l-0.06-0.876c-0.035-0.543-0.559-0.923-1.499-0.859
		c-0.716,0.049-1.511,0.391-2.085,0.895l-1.092-1.703c0.979-0.898,2.391-1.332,3.555-1.41c1.912-0.13,3.823,0.413,3.997,2.979
		l0.316,4.654l-2.869,0.195L425.766,386.98z M425.645,385.196c-0.209-0.26-0.714-0.369-1.16-0.34
		c-0.479,0.033-0.992,0.229-0.961,0.706c0.033,0.479,0.568,0.587,1.047,0.554c0.446-0.029,0.93-0.207,1.104-0.491L425.645,385.196z"
		/>
	<path d="M431.898,379.522l2.863-0.249l0.076,0.874c0.429-0.598,1.387-1.193,2.262-1.27l0.238,2.736
		c-0.147-0.035-0.389-0.047-0.659-0.022c-0.604,0.052-1.37,0.279-1.655,0.688l0.406,4.677l-2.863,0.249L431.898,379.522z"/>
	<path d="M441.398,384.147l-0.311-2.967l-1.27,0.132l-0.26-2.477l1.271-0.132l-0.22-2.096l2.857-0.3l0.22,2.096l1.556-0.163
		l0.259,2.477l-1.556,0.164l0.225,2.143c0.041,0.396,0.328,0.688,0.709,0.648c0.254-0.027,0.5-0.133,0.557-0.203l0.734,2.105
		c-0.273,0.302-0.916,0.609-1.884,0.711C442.588,386.463,441.565,385.75,441.398,384.147z"/>
	<path d="M454.277,384.101c-0.558,0.812-1.252,1.172-2.027,1.271c-1.854,0.232-3.55-0.97-3.881-3.6
		c-0.318-2.533,0.985-4.193,2.869-4.431c0.777-0.099,1.587,0.073,2.28,0.726l-0.468-3.722l2.85-0.358l1.33,10.564l-2.851,0.358
		L454.277,384.101z M453.773,380.094c-0.311-0.299-0.871-0.404-1.252-0.356c-0.775,0.097-1.357,0.718-1.238,1.669
		c0.12,0.949,0.839,1.422,1.615,1.324c0.381-0.048,0.895-0.306,1.123-0.672L453.773,380.094z"/>
	<path d="M459.404,374.007c-0.131-0.885,0.477-1.7,1.361-1.831c0.886-0.129,1.701,0.477,1.831,1.361s-0.476,1.7-1.361,1.831
		C460.352,375.5,459.535,374.893,459.404,374.007z M459.93,376.368l2.844-0.418l1.125,7.633L461.054,384L459.93,376.368z"/>
	<path d="M466.488,375.381l2.836-0.467l0.143,0.866c0.382-0.628,1.292-1.297,2.158-1.44l0.447,2.711
		c-0.15-0.024-0.393-0.017-0.66,0.027c-0.598,0.1-1.344,0.383-1.598,0.813l0.764,4.632l-2.836,0.467L466.488,375.381z"/>
	<path d="M478.272,373.129c2.229-0.42,4.242,0.856,4.746,3.525l0.109,0.58l-5.147,0.973c0.249,0.457,0.888,0.824,1.845,0.643
		c0.643-0.121,1.289-0.486,1.609-0.856l1.49,1.522c-0.633,0.785-1.925,1.338-3.055,1.552c-2.37,0.448-4.503-0.692-4.975-3.188
		C474.48,375.683,475.824,373.592,478.272,373.129z M477.611,376.424l2.494-0.472c-0.142-0.314-0.518-0.845-1.428-0.673
		C477.814,375.444,477.639,376.061,477.611,376.424z"/>
	<path d="M488.91,370.974c1.717-0.37,2.947,0.18,3.506,0.729l-1.442,2.09c-0.312-0.307-0.809-0.493-1.401-0.365
		c-0.796,0.172-1.375,0.819-1.166,1.787c0.209,0.967,1.008,1.333,1.803,1.16c0.594-0.127,0.962-0.533,1.123-0.928l2.18,1.325
		c-0.286,0.716-1.176,1.74-2.892,2.112c-2.388,0.516-4.565-0.647-5.085-3.051C485.02,373.448,486.523,371.49,488.91,370.974z"/>
	<path d="M496.957,374.963l-0.699-2.901l-1.242,0.3l-0.585-2.422l1.242-0.299l-0.494-2.049l2.792-0.674l0.496,2.049l1.52-0.367
		l0.585,2.42l-1.521,0.367l0.505,2.095c0.094,0.388,0.417,0.64,0.789,0.548c0.248-0.059,0.479-0.196,0.525-0.273l1.007,1.99
		c-0.232,0.335-0.828,0.725-1.774,0.953C498.443,377.101,497.336,376.53,496.957,374.963z"/>
	<path d="M502.309,365.517c-0.227-0.865,0.285-1.742,1.15-1.969s1.742,0.286,1.969,1.151c0.227,0.863-0.285,1.742-1.15,1.969
		S502.535,366.381,502.309,365.517z M503.09,367.805l2.779-0.73l1.957,7.461l-2.779,0.729L503.09,367.805z"/>
	<path d="M509.975,369.97c-0.601-2.071,0.408-4.327,3.032-5.087c2.639-0.766,4.698,0.6,5.298,2.67
		c0.602,2.072-0.404,4.342-3.043,5.107C512.639,373.42,510.574,372.041,509.975,369.97z M515.467,368.377
		c-0.236-0.813-0.894-1.305-1.754-1.055c-0.843,0.244-1.137,1.011-0.9,1.823c0.24,0.829,0.898,1.32,1.742,1.075
		C515.414,369.972,515.707,369.206,515.467,368.377z"/>
	<path d="M526.189,364.619c-0.248-0.759-0.752-0.913-1.404-0.7c-0.622,0.203-0.837,0.625-0.98,0.958l1.477,4.523l-2.732,0.892
		l-2.393-7.331l2.732-0.892l0.272,0.834c0.267-0.623,0.896-1.418,2.188-1.84c1.7-0.553,2.78,0.235,3.196,1.512l1.699,5.205
		l-2.732,0.893L526.189,364.619z"/>
	<path d="M534.166,362.969c0.873-0.312,1.873,0.162,2.186,1.034c0.312,0.872-0.161,1.872-1.033,2.184
		c-0.873,0.312-1.873-0.161-2.186-1.032C532.821,364.282,533.294,363.282,534.166,362.969z"/>
	<path d="M541.339,366.928l-3.874-9.921l2.676-1.046l0.297,0.759c0.313-0.911,0.914-1.437,1.657-1.727
		c1.784-0.697,3.665,0.077,4.622,2.531c0.965,2.47,0.107,4.312-1.678,5.01c-0.744,0.29-1.527,0.304-2.389-0.147l1.365,3.495
		L541.339,366.928z M542.096,357.718c-0.342,0.134-0.777,0.51-0.908,0.921l0.715,1.829c0.354,0.204,0.949,0.194,1.291,0.062
		c0.715-0.279,1.143-1.029,0.787-1.936C543.633,357.702,542.81,357.44,542.096,357.718z"/>
	<path d="M554.268,353.823c-0.318-0.732-0.822-0.809-1.452-0.535c-0.601,0.262-0.774,0.703-0.885,1.047l1.9,4.365l-2.636,1.147
		l-4.255-9.769l2.636-1.147l1.525,3.501c0.205-0.648,0.758-1.499,2.003-2.041c1.64-0.715,2.778-0.061,3.314,1.17l2.201,5.053
		l-2.637,1.147L554.268,353.823z"/>
	<path d="M559.939,351.765c-0.938-1.94-0.32-4.333,2.141-5.52c2.473-1.194,4.73-0.191,5.668,1.749
		c0.938,1.942,0.325,4.348-2.148,5.541C563.141,354.724,560.876,353.706,559.939,351.765z M565.088,349.28
		c-0.368-0.762-1.1-1.137-1.904-0.748c-0.791,0.382-0.952,1.188-0.584,1.949c0.375,0.776,1.105,1.15,1.896,0.77
		C565.301,350.861,565.462,350.056,565.088,349.28z"/>
	<path d="M571.856,347.698l-1.389-2.645l-1.132,0.594l-1.158-2.205l1.131-0.595l-0.98-1.866l2.545-1.337l0.98,1.866l1.387-0.728
		l1.158,2.205l-1.386,0.729l1.003,1.908c0.186,0.353,0.561,0.518,0.9,0.338c0.226-0.118,0.414-0.309,0.441-0.394l1.463,1.685
		c-0.143,0.382-0.625,0.905-1.487,1.359C573.82,349.409,572.606,349.125,571.856,347.698z"/>
	<path d="M577.363,342.938c-1.07-1.871-0.619-4.301,1.752-5.656c2.385-1.363,4.707-0.52,5.777,1.353
		c1.07,1.871,0.627,4.313-1.758,5.677C580.764,345.668,578.434,344.811,577.363,342.938z M582.328,340.1
		c-0.421-0.734-1.176-1.057-1.951-0.613c-0.764,0.436-0.868,1.25-0.449,1.985c0.43,0.749,1.184,1.071,1.947,0.636
		C582.65,341.665,582.756,340.849,582.328,340.1z"/>
	<path d="M590.406,339.728c0.814,0.186,1.694-0.065,2.398-0.508c0.566-0.357,1.377-1.169,0.654-2.318l-0.222-0.352
		c-0.153,0.984-0.61,1.61-1.285,2.036c-1.568,0.986-3.513,0.775-4.915-1.455c-1.369-2.177-0.793-4.049,0.816-5.061
		c0.674-0.426,1.455-0.596,2.373-0.305l-0.434-0.69l2.434-1.53l3.665,5.826c1.778,2.826-0.216,4.814-1.838,5.836
		c-1.122,0.705-2.31,1.037-3.587,0.896L590.406,339.728z M591.307,333.483c-0.399-0.127-0.953,0.014-1.264,0.209
		c-0.662,0.418-1.021,1.076-0.52,1.875c0.502,0.797,1.252,0.76,1.914,0.343c0.311-0.196,0.678-0.634,0.736-1.05L591.307,333.483z"/>
	<path d="M595.172,327.573l2.373-1.622l0.496,0.726c0.08-0.732,0.621-1.723,1.347-2.218l1.551,2.267
		c-0.146,0.043-0.362,0.151-0.587,0.305c-0.5,0.342-1.056,0.915-1.103,1.412l2.649,3.876l-2.373,1.622L595.172,327.573z"/>
	<path d="M609.699,325.84c-0.023,0.691-0.553,1.561-1.322,2.129c-0.924,0.684-2.595,0.947-3.641-0.464
		c-1.139-1.538-0.208-2.804,0.716-3.487c0.809-0.598,1.729-0.883,2.376-0.706l-0.521-0.705c-0.323-0.437-0.968-0.477-1.725,0.084
		c-0.578,0.429-1.061,1.142-1.272,1.876l-1.837-0.846c0.34-1.284,1.295-2.408,2.232-3.102c1.539-1.139,3.439-1.711,4.968,0.355
		l2.772,3.745l-2.311,1.709L609.699,325.84z M608.635,324.403c-0.314-0.104-0.798,0.074-1.156,0.341
		c-0.385,0.284-0.715,0.726-0.43,1.11c0.286,0.386,0.795,0.188,1.18-0.097c0.358-0.267,0.671-0.677,0.664-1.009L608.635,324.403z"/>
	<path d="M617.502,324.525l-6.713-8.267l2.23-1.812l0.513,0.633c0.021-0.962,0.432-1.646,1.052-2.149
		c1.486-1.209,3.513-1.043,5.174,1.002c1.67,2.057,1.416,4.073-0.071,5.28c-0.62,0.504-1.36,0.755-2.319,0.589l2.364,2.912
		L617.502,324.525z M615.416,315.524c-0.285,0.232-0.586,0.723-0.586,1.154l1.238,1.524c0.399,0.087,0.965-0.104,1.25-0.336
		c0.594-0.483,0.772-1.327,0.158-2.083C616.874,315.04,616.011,315.042,615.416,315.524z"/>
	<path d="M626.014,307.85c-0.533-0.596-1.035-0.51-1.547-0.053c-0.488,0.437-0.515,0.91-0.512,1.273l3.174,3.547l-2.143,1.918
		l-7.104-7.941l2.143-1.916l2.546,2.844c-0.008-0.679,0.25-1.66,1.262-2.564c1.334-1.193,2.62-0.93,3.514,0.07l3.676,4.106
		l-2.143,1.917L626.014,307.85z"/>
	<path d="M635.188,305.999c0.398-0.391,0.584-0.705,0.507-0.92l-0.066-0.158l-7.654-3.479l2.167-2.123l4.135,2.121l-2.023-4.188
		l2.166-2.122l3.674,8.539c0.76,1.758,0.082,2.892-1.047,4.066c-0.148,0.146-0.639,0.558-0.889,0.691l-1.503-2.105
		C634.847,306.266,635.051,306.133,635.188,305.999z"/>
	<path d="M640.06,295.69c0.64-0.67,1.747-0.695,2.416-0.055c0.671,0.641,0.694,1.747,0.056,2.417
		c-0.641,0.67-1.748,0.695-2.417,0.055C639.445,297.467,639.42,296.36,640.06,295.69z"/>
	<path d="M646.814,293.106c0.834-0.049,1.607-0.536,2.159-1.156c0.444-0.503,0.995-1.508-0.019-2.409l-0.312-0.274
		c0.126,0.987-0.136,1.715-0.665,2.312c-1.229,1.385-3.154,1.727-5.125-0.021c-1.923-1.706-1.893-3.664-0.632-5.086
		c0.53-0.598,1.231-0.979,2.193-0.957l-0.608-0.541l1.906-2.149l5.148,4.567c2.496,2.215,1.14,4.682-0.133,6.115
		c-0.879,0.992-1.926,1.642-3.189,1.865L646.814,293.106z M645.932,286.86c-0.419-0.009-0.91,0.281-1.154,0.556
		c-0.52,0.585-0.679,1.318,0.026,1.943c0.704,0.625,1.413,0.38,1.933-0.206c0.244-0.274,0.474-0.797,0.413-1.212L645.932,286.86z"/>
	<path d="M648.102,279.973l1.822-2.225l0.68,0.559c-0.129-0.726,0.113-1.828,0.671-2.508l2.125,1.741
		c-0.128,0.081-0.306,0.246-0.478,0.456c-0.384,0.47-0.757,1.176-0.662,1.666l3.632,2.977l-1.823,2.225L648.102,279.973z"/>
	<path d="M661.498,274.305c0.17,0.672-0.094,1.653-0.672,2.416c-0.696,0.916-2.227,1.637-3.625,0.575
		c-1.525-1.158-0.986-2.634-0.291-3.548c0.609-0.801,1.413-1.333,2.083-1.344l-0.699-0.531c-0.433-0.328-1.062-0.186-1.632,0.564
		c-0.434,0.571-0.697,1.395-0.695,2.157l-2-0.297c-0.033-1.328,0.568-2.675,1.273-3.603c1.158-1.525,2.822-2.607,4.868-1.053
		l3.712,2.819l-1.738,2.288L661.498,274.305z M660.074,273.225c-0.332-0.012-0.746,0.295-1.017,0.651
		c-0.29,0.381-0.481,0.896-0.1,1.187c0.382,0.289,0.814-0.043,1.104-0.424c0.27-0.356,0.455-0.838,0.354-1.154L660.074,273.225z"/>
	<path d="M668.483,271.047l-8.752-6.074l1.64-2.362l0.669,0.464c-0.249-0.93-0.044-1.701,0.411-2.357
		c1.093-1.574,3.086-1.98,5.25-0.478c2.179,1.512,2.496,3.52,1.402,5.095c-0.455,0.656-1.098,1.104-2.064,1.211l3.083,2.14
		L668.483,271.047z M663.974,262.979c-0.21,0.301-0.362,0.857-0.241,1.271l1.613,1.12c0.408-0.028,0.898-0.369,1.107-0.671
		c0.438-0.63,0.373-1.49-0.428-2.047C665.238,262.108,664.41,262.348,663.974,262.979z"/>
	<path d="M671.864,252.961c-0.675-0.428-1.135-0.208-1.501,0.373c-0.35,0.553-0.245,1.016-0.145,1.363l4.021,2.541l-1.535,2.43
		l-9-5.689l1.534-2.43l3.226,2.039c-0.193-0.651-0.213-1.666,0.512-2.812c0.956-1.511,2.264-1.608,3.398-0.894l4.654,2.943
		l-1.534,2.429L671.864,252.961z"/>
	<path d="M670.182,244.543c-0.771-0.453-1.027-1.438-0.574-2.209c0.453-0.77,1.436-1.026,2.207-0.574
		c0.771,0.453,1.026,1.437,0.573,2.207C671.936,244.739,670.953,244.995,670.182,244.543z M672.35,245.612l1.455-2.479l6.65,3.902
		l-1.454,2.479L672.35,245.612z"/>
	<path d="M677.277,236.563c0.845-1.541,2.068-2.109,2.85-2.172l0.635,2.463c-0.437,0.032-0.904,0.287-1.195,0.818
		c-0.393,0.715-0.283,1.576,0.586,2.053c0.868,0.477,1.669,0.113,2.061-0.602c0.291-0.531,0.227-1.076,0.033-1.456l2.433-0.78
		c0.353,0.686,0.544,2.029-0.301,3.571c-1.175,2.143-3.481,3.027-5.639,1.844C676.596,241.127,676.102,238.707,677.277,236.563z"/>
</g>
</svg>