<!-- Generator: Adobe Illustrator 22.1.0, SVG Export Plug-In  -->
<svg version="1.1"
	 xmlns="http://www.w3.org/2000/svg" xmlns:xlink="http://www.w3.org/1999/xlink" xmlns:a="http://ns.adobe.com/AdobeSVGViewerExtensions/3.0/"
	 x="0px" y="0px" width="152.828px" height="147.485px" viewBox="0 0 152.828 147.485"
	 style="enable-background:new 0 0 152.828 147.485;" xml:space="preserve">
<style type="text/css">
	.st0{fill:none;stroke:#000000;stroke-linecap:round;stroke-linejoin:round;stroke-miterlimit:10;}
</style>
<defs>
</defs>
<path class="st0" d="M30.359,43.69c4.923-6.953,9.42-14.317,13.584-21.099c5.026-8.185,11.96-14.062,20.262-18.639
	c7.063-3.894,16.83-4.055,24.508-2.63c3.379,0.627,5.444,2.594,7.194,5.539c1.755,2.951,3.919,5.635,5.597,8.64
	c3.488,6.245,7.231,13.738,12.441,18.789c2.426,2.352,5.76,3.969,8.456,6.021c1.706,1.299,2.777,2.669,4.654,3.639
	c1.795,0.927,3.415,2.048,5.098,3.177c2.79,1.872,5.803,3.549,8.228,5.88c1.255,1.206,2.798,2.415,3.791,3.845
	c1.239,1.784,2.003,4.394,3.002,6.356c2.84,5.579,5.074,11.911,5.077,18.19c0.002,2.848,0.569,5.572-1.447,7.894
	c-2.616,3.013-6.3,5.015-9.929,6.491c-5.08,2.067-10.719,3.423-15.589,5.923c-1.793,0.92-3.353,2.18-5.216,3.005
	c-1.908,0.846-4.021,1.248-5.752,2.475c-2.548,1.807-4.823,4.375-7.26,6.358c-3.108,2.529-5.611,5.774-8.327,8.684
	c-5.553,5.95-8.22,13.356-15.233,17.977c-2.898,1.91-5.696,4.364-9.061,5.309c-4.487,1.26-8.551,1.464-13.174,1.463
	c-3.752-0.001-7.378,0.203-10.789-1.652c-3.363-1.828-6.48-4.546-8.685-7.658c-1.917-2.706-4.218-5.642-5.076-8.884
	c-0.809-3.059-1.043-5.776-1.207-8.885c-0.069-1.3-0.629-2.096-0.902-3.319c-0.356-1.594-0.193-3.019-0.815-4.671
	c-1.076-2.854-2.876-5.961-5.043-8.132c-1.415-1.417-3.417-2.17-4.909-3.532c-1.895-1.731-3.733-3.61-5.72-5.235
	c-3.112-2.546-6.903-4.399-9.741-7.247c-4.702-4.717-9.119-12.234-7.562-19.171c1.568-6.988,11.735-4.529,16.064-8.731
	C21.718,55.168,26.191,49.576,30.359,43.69z"/>
</svg>