<!-- Generator: Adobe Illustrator 22.1.0, SVG Export Plug-In  -->
<svg version="1.1"
	 xmlns="http://www.w3.org/2000/svg" xmlns:xlink="http://www.w3.org/1999/xlink" xmlns:a="http://ns.adobe.com/AdobeSVGViewerExtensions/3.0/"
	 x="0px" y="0px" width="105.9px" height="158.001px" viewBox="0 0 105.9 158.001"
	 style="enable-background:new 0 0 105.9 158.001;" xml:space="preserve">
<defs>
</defs>
<g>
	<path d="M70.719,147.689c-0.888,1.694-2.366,5.996-2.75,7.946c-0.092,0.469-0.163,0.948-0.315,1.398
		c-0.149,0.439-0.304,1.061-0.883,0.957c-0.401-0.072-0.883-0.449-1.061-0.819c-0.262-0.544-0.462-1.227-0.381-1.808
		c0.311-2.209,0.729-4.403,1.142-6.596c0.177-0.938,0.449-1.858,0.653-2.791c0.062-0.285,0.04-0.588,0.073-1.171
		c-1.337,0.964-2.137,2.048-3.047,3.021c-0.37,0.396-0.804,0.775-1.282,1.017c-0.619,0.315-1.427-0.325-1.205-0.971
		c0.28-0.814,0.629-1.658,1.161-2.319c0.796-0.988,1.718-1.898,2.693-2.714c1.27-1.063,1.906-2.323,1.744-3.982
		c-0.086-0.873-0.149-1.748-0.202-2.624c-0.092-1.513-0.161-3.027-0.256-4.539c-0.024-0.387-0.113-0.771-0.189-1.268
		c-0.628,0.144-1.173,0.224-1.687,0.397c-0.797,0.268-1.571,0.334-2.308-0.119c-0.688-0.423-1.329-0.267-2.057-0.064
		c-1.994,0.558-3.998,1.126-6.036,1.465c-1.237,0.206-2.603,0.226-3.807-0.08c-2.256-0.573-4.561-0.755-6.832-1.176
		c-1.564-0.29-3.146-0.483-4.72-0.717c-0.847-0.126-1.174,0.074-1.343,0.864c-0.083,0.389-0.091,0.794-0.157,1.187
		c-0.212,1.255-0.439,2.507-0.653,3.762c-0.201,1.178-0.435,2.353-0.56,3.54c-0.036,0.341,0.195,0.757,0.407,1.068
		c0.639,0.937,0.695,1.875,0.346,2.953c-0.393,1.21-0.559,2.493-0.931,3.712c-0.419,1.371-0.931,2.716-1.461,4.049
		c-0.136,0.342-0.443,0.668-0.755,0.876c-0.748,0.5-1.774,0.026-1.767-0.849c0.006-0.7,0.162-1.422,0.382-2.091
		c0.326-0.991,0.706-1.953,0.468-3.036c-0.49-0.296-0.692,0.165-0.94,0.396c-0.702,0.653-1.354,1.361-2.058,2.012
		c-1.256,1.16-2.195,2.522-2.83,4.112c-0.295,0.738-0.664,1.452-1.066,2.138c-0.26,0.443-0.717,0.603-1.248,0.489
		c-0.605-0.13-1.027-0.472-1.144-1.08c-0.058-0.302-0.046-0.653,0.052-0.943c0.722-2.126,1.548-4.163,3.293-5.746
		c1.472-1.336,2.765-2.87,4.122-4.33c0.141-0.152,0.176-0.403,0.286-0.672c-2.714,0.406-5.089,1.424-7.217,2.982
		c-0.626,0.458-1.087,1.144-1.616,1.733c-0.621,0.69-1.223,0.845-1.898,0.473c-0.684-0.378-0.889-0.924-0.753-1.825
		c0.149-0.991,0.586-1.806,1.32-2.486c1.348-1.248,2.669-2.526,4.022-3.768c0.844-0.775,1.868-1.239,2.992-1.413
		c0.705-0.109,1.127-0.46,1.474-1.063c1.488-2.585,2.427-5.366,3.075-8.262c0.128-0.574-0.058-0.914-0.587-1.121
		c-0.372-0.145-0.726-0.337-1.098-0.48c-2.127-0.819-3.97-2.023-5.461-3.781c-0.507-0.597-1.208-1.037-1.846-1.515
		c-2.103-1.577-4.29-3.053-6.305-4.735c-1.586-1.324-3.03-2.839-4.423-4.371c-2.097-2.307-4.019-4.754-5.543-7.498
		c-0.697-1.254-1.495-2.454-2.287-3.651c-1.597-2.413-2.718-5-3.532-7.799c-0.9-3.096-1.349-6.244-1.684-9.41
		c-0.252-2.377-0.14-4.791-0.227-7.187c-0.102-2.81,0.376-5.571,0.654-8.349c0.079-0.788,0.293-1.575,0.541-2.331
		c0.4-1.218,0.812-2.42,0.825-3.726c0.004-0.387,0.09-0.81,0.263-1.154c1.783-3.556,3.24-7.302,6.03-10.272
		c0.488-0.52,0.875-1.139,1.285-1.729c1.784-2.567,3.918-4.832,6.134-7.015c1.488-1.466,2.79-3.069,4.043-4.732
		c0.765-1.015,1.656-1.936,2.496-2.895c1.005-1.147,1.835-2.4,2.358-3.843c0.134-0.37,0.193-0.815,0.438-1.09
		c2.119-2.38,4.116-4.882,6.785-6.718c1.575-1.083,3.1-2.241,4.62-3.401c1.85-1.412,3.035-3.409,4.516-5.149
		c1.806-2.121,3.805-4.089,5.83-6.008c1.563-1.481,3.295-2.784,4.951-4.165c0.429-0.358,0.813-0.804,1.297-1.058
		c2.832-1.486,5.742-2.709,8.937-3.294c3.741-0.684,7.49-0.342,11.235-0.437c0.859-0.022,1.733,0.196,2.587,0.371
		c1.405,0.289,2.792,0.666,4.199,0.949c3.093,0.622,6.006,1.795,8.635,3.455c2.825,1.784,5.575,3.77,7.608,6.505
		c0.705,0.949,1.347,2.025,1.692,3.144c0.562,1.818,1.215,3.627,1.241,5.596c0.022,1.667,0.492,3.343,0.397,4.994
		c-0.187,3.275-0.811,6.464-2.389,9.438c-1.045,1.968-1.856,4.07-2.648,6.159c-0.548,1.445-1.193,2.86-2.258,3.919
		c-1.509,1.5-1.679,3.325-1.804,5.228c-0.039,0.591,0.089,1.153,0.633,1.461c3.2,1.812,4.617,4.971,6.148,8.054
		c1.14,2.295,2.062,4.649,2.783,7.125c0.801,2.75,1.871,5.448,3.096,8.039c0.801,1.695,1.286,3.427,1.653,5.222
		c0.352,1.719,0.682,3.445,0.953,5.179c0.278,1.78,0.113,3.532-0.822,5.109c-0.765,1.29-0.967,2.662-1.02,4.129
		c-0.126,3.509-0.35,7.014-0.523,10.522c-0.049,0.991-0.329,1.868-1,2.629c-1.956,2.221-3.861,4.5-6.784,5.531
		c-0.988,0.349-1.558,1.048-1.86,2.033c-0.399,1.297-0.934,2.559-1.244,3.876c-0.62,2.631-2.491,4.232-4.564,5.609
		c-1.655,1.099-3.5,1.907-5.194,2.951c-1.352,0.833-2.789,1.151-4.334,1.151c-1.834,0.001-3.681-0.155-5.393,0.778
		c-0.324,0.177-0.782,0.113-1.179,0.152c-1.696,0.169-1.65,0.168-1.64,2.011c0.005,0.984,0.231,1.882,0.533,2.801
		c0.448,1.363,0.769,2.766,1.19,4.138c0.341,1.114,0.412,2.219-0.102,3.272c-0.327,0.671-0.239,1.204,0.171,1.775
		c0.372,0.519,0.742,1.048,1.033,1.614c0.401,0.778,0.809,1.57,1.062,2.402c0.292,0.959-0.635,1.781-1.567,1.406
		C71.897,148.472,71.325,148.043,70.719,147.689z M4.863,93.942c0.33-0.122,0.569-0.162,0.751-0.286
		c3.088-2.096,6.627-2.634,10.223-2.952c2.42-0.214,4.758,0.294,7.098,0.843c1.106,0.259,2.128,0.633,3.107,1.205
		c2.14,1.248,4.253,2.559,6.475,3.644c3.609,1.762,6.98,3.936,10.22,6.241c2.951,2.1,6.174,3.675,9.211,5.589
		c0.531,0.335,1.163,0.522,1.765,0.728c3.017,1.034,6.032,2.071,9.063,3.064c0.98,0.321,1.997,0.69,3.008,0.725
		c3.431,0.119,6.834,0.712,10.282,0.556c1.272-0.058,2.554,0.103,3.831,0.16c0.395,0.018,0.807,0.096,1.184,0.015
		c1.616-0.345,3.193-0.138,4.725,0.361c1.249,0.407,2.508,0.434,3.791,0.403c0.685-0.016,0.991-0.196,0.909-0.994
		c-0.039-0.373,0.402-0.797,0.63-1.195c0.192-0.335,0.516-0.65,0.563-1.002c0.233-1.74,0.377-3.492,0.584-5.235
		c0.197-1.662,0.355-3.334,0.669-4.976c0.599-3.136,1.308-6.25,1.943-9.38c0.109-0.539,0.153-1.112,0.104-1.658
		c-0.26-2.863-0.529-5.726-0.856-8.581c-0.172-1.501-0.472-2.986-0.707-4.48c-0.321-2.039-0.905-4.03-0.866-6.135
		c0.018-0.934-0.209-1.926-0.552-2.803c-0.813-2.079-1.776-4.099-2.648-6.155c-0.341-0.804-0.639-1.632-0.886-2.47
		c-0.338-1.145-0.586-2.317-0.916-3.465c-0.265-0.922-0.317-1.808-0.275-2.794c0.078-1.8,0.991-3.566,0.279-5.419
		c-0.116-0.302,0.082-0.788,0.256-1.126c0.511-0.989,0.933-2.082,1.664-2.886c1.335-1.471,1.928-3.297,2.779-5.002
		c0.286-0.574-0.011-0.936-0.68-0.772c-1.128,0.276-2.2,0.285-3.257-0.245c-1.693-0.847-2.876-2.893-2.514-4.501
		c0.473-2.102,1.478-3.819,3.404-4.994c1.401-0.854,2.699-0.902,4.04-0.068c0.673,0.419,1.257,0.977,1.901,1.444
		c0.317,0.23,0.68,0.115,0.748-0.239c0.271-1.408,0.638-2.823,0.68-4.244c0.108-3.633-0.631-7.132-1.97-10.518
		c-0.579-1.464-1.5-2.63-2.658-3.64c-0.843-0.735-1.703-1.452-2.586-2.137c-0.367-0.285-0.805-0.644-1.225-0.664
		c-2.227-0.109-4.415-0.777-6.668-0.464c-0.947,0.131-1.891,0.374-2.839,0.386c-2.668,0.034-5.209,0.702-7.758,1.372
		c-2.309,0.607-4.604,1.287-6.941,1.759c-3.078,0.622-6.209,0.441-9.312,0.163c-0.837-0.075-1.641-0.583-2.447-0.922
		c-0.29-0.122-0.525-0.387-0.819-0.489C51.094,9.61,50.661,9.5,50.487,9.638c-0.867,0.686-1.671,1.452-2.497,2.19
		c0.086,1.323-1.075,2.12-1.385,3.252c-0.424,1.547-1.401,2.453-2.854,2.952c-0.845,0.29-1.523,0.815-2.214,1.379
		c-2.221,1.811-4.348,3.717-6.76,5.327c-2.09,1.395-3.751,3.448-5.546,5.265c-0.73,0.739-1.357,1.579-2.315,2.047
		c-0.691,0.337-1.102,0.841-1.291,1.61c-0.292,1.188-0.991,2.156-1.807,3.065c-1.171,1.305-2.281,2.665-3.413,4.005
		c-0.567,0.671-1.096,1.376-1.688,2.024c-3.073,3.362-6.17,6.701-8.926,10.339c-2.93,3.867-5.239,7.99-5.996,12.889
		c-0.598,3.869-1.301,7.724-1.169,11.654c0.107,3.192,0.262,6.39,0.578,9.567C3.432,89.486,4.121,91.697,4.863,93.942z
		 M16.685,93.25c-2.99-0.028-6.508,0.885-8.666,2.129c-0.273,0.157-0.551,0.318-0.846,0.423c-0.474,0.169-1.27-0.407-1.412,0.388
		c-0.083,0.466,0.323,1.031,0.543,1.537c0.32,0.734,0.683,1.424,1.367,1.927c0.368,0.27,0.647,0.696,0.89,1.099
		c0.617,1.025,1.192,2.076,1.783,3.118c3.083,5.433,7.221,9.92,12.206,13.655c2.36,1.768,4.956,3.247,6.889,5.547
		c0.409,0.487,0.89,0.608,1.487,0.316c0.692-0.339,1.368-0.2,2.082,0.047c0.665,0.23,1.398,0.253,2.089,0.418
		c0.759,0.181,1.491,0.527,2.256,0.613c2.273,0.255,4.262,1.24,5.674,3.022c0.523,0.66,1.095,1.084,1.962,1.213
		c1.809,0.268,3.624,0.549,5.399,0.982c1.909,0.466,3.775,0.554,5.661-0.016c1.524-0.461,3.046-0.928,4.576-1.367
		c1.225-0.352,2.445-0.763,3.696-0.977c2.418-0.413,4.855-0.713,7.287-1.044c1.34-0.183,2.683-0.473,4.026-0.475
		c4.638-0.009,8.419-2.169,12.06-4.676c0.997-0.687,1.704-1.689,1.963-2.926c0.093-0.446-0.04-0.812-0.55-0.857
		c-3.408-0.307-6.738-1.402-10.22-0.999c-0.629,0.073-1.296,0.063-1.913-0.064c-2.692-0.551-5.416-0.412-8.124-0.364
		c-2.586,0.045-5.093-0.262-7.564-0.98c-0.153-0.044-0.326-0.032-0.469-0.093c-2.127-0.904-4.335-1.55-6.539-2.242
		c-3.752-1.178-6.991-3.479-10.444-5.313c-0.279-0.148-0.508-0.387-0.771-0.568c-2.303-1.587-4.544-3.274-6.927-4.73
		c-3.607-2.204-7.358-4.173-10.963-6.379C22.407,93.918,19.373,93.495,16.685,93.25z M94.9,109.921
		c2.718-2.038,4.897-3.826,4.595-7.203c-0.021-0.234,0.018-0.481,0.067-0.713c0.648-3.053,0.972-6.138,0.854-9.259
		c-0.041-1.082,0.18-2.074,0.859-2.92c1.208-1.504,1.273-3.212,0.974-5.001c-0.302-1.808-0.539-3.629-0.913-5.422
		c-0.275-1.318-0.627-2.637-1.117-3.889c-1.364-3.486-3.066-6.848-3.719-10.586c-0.067-0.385-0.258-0.755-0.424-1.116
		c-1.099-2.392-2.146-4.811-3.341-7.154c-0.495-0.972-1.304-1.787-1.99-2.658c-0.081-0.103-0.377-0.191-0.41-0.151
		c-0.131,0.158-0.31,0.399-0.269,0.557c0.462,1.774,0.856,3.576,1.478,5.295c0.785,2.17,1.715,4.291,2.675,6.392
		c0.746,1.633,1.17,3.289,1.077,5.095c-0.044,0.871-0.028,1.779,0.17,2.621c0.862,3.653,1.241,7.381,1.863,11.07
		c0.679,4.024,0.386,7.948-0.653,11.838c-1.034,3.871-1.272,7.856-1.839,11.793C94.795,108.81,94.862,109.128,94.9,109.921z
		 M81.177,4.232c-2.537-0.609-4.549-1.103-6.567-1.567c-0.384-0.088-0.796-0.086-1.194-0.071c-3.583,0.13-7.187-0.248-10.744,0.516
		c-3.458,0.742-6.784,1.722-9.285,4.481c1.325,0.956,1.325,0.978,2.36,1.014c1.995,0.069,3.975-0.216,5.952-0.319
		c2.44-0.127,4.751-0.686,7.017-1.362c3.532-1.054,7.07-1.924,10.752-2.179C79.848,4.719,80.216,4.528,81.177,4.232z"/>
	<path d="M70.261,64.427c1.995-0.024,4.214-0.051,6.425-0.555c2.802-0.639,5.309-1.665,7.103-4.047
		c0.373-0.496,0.929-0.868,1.441-1.241c0.407-0.296,0.891-0.386,1.332-0.036c0.416,0.33,0.53,0.8,0.417,1.294
		c-0.088,0.384-0.182,0.809-0.412,1.11c-0.626,0.817-1.254,1.656-2.01,2.344c-2.193,1.997-4.871,2.997-7.744,3.532
		c-3.477,0.648-6.936,0.722-10.471,0.242c-3.163-0.429-6.308-0.909-9.427-1.568c-1.088-0.23-2.188-0.491-3.213-0.909
		c-4.586-1.869-9.175-3.713-13.116-6.856c-2.579-2.057-4.923-4.334-6.947-6.91c-1.724-2.195-3.301-4.517-4.806-6.871
		c-1.371-2.144-2.151-4.465-1.094-7.034c0.119-0.289,0.122-0.624,0.194-0.934c0.328-1.409,1.085-1.858,2.418-1.373
		c0.824,0.299,1.61,0.7,2.423,1.031c2.713,1.103,5.474,1.575,8.415,0.975c1.787-0.364,3.637-0.411,5.453-0.642
		c1.185-0.15,2.419-0.211,3.529-0.603c1.905-0.672,3.922-0.726,5.828-1.282c1.138-0.332,2.359,0.345,3.42-0.404
		c-0.489-0.991-0.993-1.974-1.456-2.976c-0.129-0.28-0.197-0.617-0.19-0.926c0.013-0.605,0.311-1.086,0.896-1.287
		c0.519-0.179,0.924,0.124,1.26,0.485c0.161,0.173,0.321,0.375,0.398,0.593c0.543,1.548,1.811,2.433,3.108,3.195
		c1.215,0.714,2.376,1.494,3.825,1.885c1.357,0.366,2.745,0.662,4.072,1.085c1.491,0.475,2.827,1.442,4.222,2.21
		c0.689,0.379,1.042,0.302,1.33-0.37c0.989-2.307,1.331-4.758,1.494-7.229c0.087-1.315-0.235-1.689-1.535-2.031
		c-1.156-0.304-2.302-0.515-3.255-1.371c-0.352-0.316-1.051-0.319-1.595-0.332c-1.597-0.036-3.196,0.005-4.795-0.005
		c-0.939-0.005-1.619-0.33-1.581-0.735c0.061-0.647,0.568-0.979,1.07-1.185c0.726-0.297,1.497-0.598,2.266-0.651
		c2.655-0.182,5.26,0.087,7.715,1.238c0.36,0.169,0.743,0.335,1.131,0.389c2.484,0.346,3.107,2.218,3.499,4.258
		c0.089,0.461,0.069,0.969-0.019,1.432c-0.433,2.273-0.793,4.569-1.408,6.794c-0.354,1.283-1.07,2.489-1.758,3.65
		c-0.637,1.074-1.444,1.089-2.347,0.186c-0.337-0.337-0.601-0.751-0.949-1.075c-0.399-0.372-0.855-0.683-1.287-1.021
		c-0.526,0.701,0.158,1.147,0.38,1.669c0.696,1.635,0.981,3.366,1.299,5.095c0.158,0.858,0.378,1.709,0.637,2.543
		c0.378,1.22,1.063,2.13,2.471,2.287c0.381,0.043,0.782,0.231,1.099,0.457c1.845,1.31,3.936,2.104,6.008,2.946
		c0.676,0.275,1.296,0.611,1.447,1.447c0.106,0.587-0.136,1.242-0.692,1.331c-0.613,0.098-1.296,0.165-1.873-0.008
		c-0.909-0.272-1.777-0.712-2.622-1.159c-2.039-1.079-4.08-2.158-6.072-3.321c-1.59-0.928-2.541-2.389-2.965-4.173
		c-0.184-0.776-0.374-1.566-0.417-2.357c-0.101-1.875-0.656-3.602-1.482-5.266c-0.283-0.57-0.748-1.165-0.741-1.743
		c0.019-1.564-1.015-1.783-2.143-1.909c-0.875-0.098-1.778-0.055-2.493-0.682c-1.301-1.142-2.843-0.937-4.342-0.728
		c-2.84,0.397-5.669,0.873-8.5,1.338c-0.786,0.129-1.576,0.28-2.336,0.513c-3.621,1.113-7.337,1.375-11.101,1.43
		c-2.124,0.031-4.115-0.435-6.104-1.039c-0.458-0.139-0.901-0.326-1.357-0.469c-0.929-0.292-0.991-0.258-1.381,0.716
		c-0.148,0.37-0.239,0.767-0.416,1.122c-0.283,0.568-0.187,1.068,0.134,1.58c0.424,0.677,0.751,1.425,1.24,2.048
		c1.974,2.514,3.864,5.112,6.029,7.452c2.717,2.936,5.78,5.548,9.415,7.301c3.087,1.489,6.272,2.785,9.462,4.045
		c1.245,0.492,2.617,0.673,3.94,0.953c0.933,0.197,1.901,0.252,2.82,0.493C65.228,64.43,67.636,64.259,70.261,64.427z"/>
	<path d="M54.564,13.412c1.437-0.251,2.58,0.411,3.321,1.855c0.325,0.634,0.711,1.237,1.02,1.878
		c0.133,0.277,0.23,0.627,0.189,0.923c-0.24,1.734-1.234,3.089-2.368,4.327c-0.894,0.977-2.14,0.982-3.347,0.871
		c-2.11-0.194-4.698-3.832-4.194-5.844C49.807,14.946,51.807,13.399,54.564,13.412z"/>
	<path d="M73.052,33.836c-2.727-0.315-5.29-1.155-7.774-2.238c-0.718-0.313-1.383-0.791-1.999-1.283
		c-0.931-0.744-1.806-1.56-2.689-2.363c-0.231-0.211-0.428-0.472-0.594-0.738c-0.282-0.452-0.799-0.92-0.234-1.47
		c0.536-0.522,1.451-0.644,1.978-0.254c1.088,0.806,2.122,1.686,3.204,2.501c1.082,0.816,2.167,1.645,3.565,1.864
		c0.381,0.06,0.803,0.233,1.14,0.133c2.146-0.636,3.414,0.912,4.857,1.944c0.571,0.408,0.194,1.517-0.522,1.749
		C73.687,33.778,73.363,33.788,73.052,33.836z"/>
</g>
</svg>