<!-- Generator: Adobe Illustrator 22.1.0, SVG Export Plug-In  -->
<svg version="1.1"
	 xmlns="http://www.w3.org/2000/svg" xmlns:xlink="http://www.w3.org/1999/xlink" xmlns:a="http://ns.adobe.com/AdobeSVGViewerExtensions/3.0/"
	 x="0px" y="0px" width="2195.162px" height="1994.094px" viewBox="0 0 2195.162 1994.094"
	 style="enable-background:new 0 0 2195.162 1994.094;" xml:space="preserve">
<defs>
</defs>
<g>
	<g>
		<path d="M1146.13,526.687c43.24-0.848,77.905-36.039,104.198-66.668c31.527-36.726,56.757-78.27,87.77-115.353
			c40.372-48.273,88.916-92.334,138.681-130.69c53.054-40.892,113.644-79.354,178.843-97.034
			c33.376-9.051,69.132-11.733,102.327-0.439c30.938,10.525,56.315,32.41,77.338,56.845c21.102,24.527,44.335,54.135,52.244,86.069
			c9.464,38.212-16.46,64.948-36.762,93.765c-73.518,104.353-109.479,235.054-106.975,362.297
			c1.212,61.584,29.015,116.411,65.265,164.786c42.44,56.636,91.279,108.105,138.087,161.066
			c86.024,97.33,172.598,203.181,216.237,327.262c10.56,30.025,18.543,61.053,23.171,92.558
			c2.258,15.372,1.422,30.061-16.116,34.386c-10.806,2.665-22.01,4.11-33.031,5.539c-8.975,1.164-17.993,2.26-27.037,2.695
			c-16.185,0.779-31.907,4.604-48.021,6.053c-28.529,2.565-56.572-1.533-85.062-1.606c-36.179-0.092-72.712,5.777-108.565,10.133
			c-38.173,4.638-76.306,9.624-114.546,13.69c-16.671,1.773-33.544,2.624-49.982,6.06c-17.293,3.616-34.001,9.485-51.529,11.952
			c-29.368,4.134-47.528,28.612-66.271,49.538c-19.825,22.132-37.042,46.624-49.614,73.609
			c-14.741,31.641-20.573,66.082-33.099,98.488c-12.691,32.835-18.485,69.042-34.838,100.321
			c-14.771,28.255-37.401,53.008-65.021,69.109c-30.635,17.859-65.962,23.677-99.949,31.911
			c-34.53,8.365-68.989,14.532-104.685,13.413c-67.836-2.125-135.133-29.441-173.174-87.772
			c-19.546-29.972-34.745-64.259-48.427-97.236c-13.844-33.37-23.974-67.934-32.499-103.006
			c-8.773-36.096-15.808-72.58-22.84-109.046c-4.476-23.208-5.172-53.07-24.261-69.834c-22.62-19.865-53.482-21.216-81.943-25.2
			c-35.539-4.975-71.312-8.05-107.129-10.128c-74.895-4.344-149.966-4.426-224.855-8.88
			c-127.537-7.586-271.797-27.829-363.552-126.286c-37.776-40.536-67.047-89.735-86.997-141.316
			c-19.515-50.457-31.58-106.553-23.627-160.696c3.733-25.409,11.471-51.641,28.883-71.128
			c18.136-20.298,43.469-32.839,68.791-41.71c28.441-9.964,58.239-15.815,87.712-21.778c36.956-7.477,74.076-14.104,111.09-21.284
			c50.239-9.745,121.808-15.861,149.742-66.567c5.667-10.287,8.673-21.776,9.203-33.485c0.814-17.982,0.375-36.351-0.097-54.348
			c-0.925-35.302-8.421-69.454-18.221-103.275c-19.992-68.997-47.993-135.328-66.792-204.741
			c-9.597-35.435-17.29-71.45-21.692-107.917c-3.852-31.907-4.204-63.879-4.83-95.962c-1.053-53.932-1.211-115.405,37.725-157.66
			c41.424-44.955,109.61-55.107,167.541-58.324c60.516-3.361,119.364,1.165,171.938,34.182
			c25.427,15.968,51.997,36.566,64.773,64.422c12.689,27.667,18.295,58.227,29.792,86.46
			c23.281,57.168,55.458,111.113,96.944,156.971c19.559,21.62,42.814,38.841,63.077,59.592
			c15.706,16.084,29.355,34.006,44.203,50.855C1061.081,497.002,1097.794,522.094,1146.13,526.687c4.802,0.456,4.771-7.047,0-7.5
			c-27.98-2.659-53.992-12.385-76.339-29.512c-18.642-14.287-33.961-32.299-48.972-50.216
			c-14.836-17.708-29.605-35.447-47.415-50.286c-25.89-21.571-49.262-45.691-69.766-72.455
			c-39.56-51.638-69.415-110.92-87.627-173.318c-8.019-27.474-17.089-53.135-38.333-73.224
			c-21.404-20.24-45.761-37.508-72.775-49.417C651.218-2.909,591.535-2.449,534.153,3.263
			c-55.236,5.498-117.624,19.955-153.995,65.558c-33.537,42.05-34.942,98.612-34.099,149.934
			c0.538,32.753,0.765,65.497,4.476,98.084c3.934,34.552,10.705,68.72,19.383,102.382c18.275,70.881,46.468,138.373,67.504,208.355
			c11.145,37.076,19.673,74.432,20.369,113.286c0.574,32.074,5.29,67.867-17.927,93.5c-18.68,20.623-46.357,30.606-72.815,36.585
			c-38.162,8.623-76.667,15.67-115.11,22.905c-35.775,6.733-71.667,13.306-107.074,21.808c-25.52,6.128-51.033,13.9-74.19,26.475
			c-21.99,11.941-41.968,28.94-53.072,51.765c-10.363,21.301-15.217,45.428-16.922,68.924c-3.965,54.642,9.8,109.96,30.897,160.016
			c20.722,49.167,49.554,95.891,86.498,134.563c40.977,42.894,94.249,71.443,150.146,90.041
			c139.606,46.452,291.651,35.943,436.502,44.04c38.623,2.159,77.228,5.38,115.516,10.986c27.922,4.089,67.619,5.486,82.239,34.584
			c6.334,12.607,7.54,28.471,10.18,42.114c3.533,18.262,7.014,36.535,10.669,54.773c7.449,37.173,15.639,74.231,26.287,110.634
			c10.142,34.674,23.801,68.054,39.494,100.567c13.829,28.652,27.718,57.953,49.256,81.733
			c43.828,48.388,110.568,68.067,174.37,67.189c34.441-0.474,67.195-7.774,100.55-15.559c32.809-7.657,66.468-14.272,95.767-31.774
			c25.613-15.3,47.053-37.769,62.122-63.448c17.115-29.165,22.611-62.669,33.786-94.185c6.225-17.554,12.776-34.669,17.843-52.633
			c5.229-18.539,10.513-36.993,18.273-54.667c12.902-29.388,31.409-55.86,52.982-79.517c10.775-11.817,21.647-25.235,34.353-34.995
			c13.858-10.644,32.233-10.318,48.63-14.59c17.892-4.662,35.283-9.033,53.749-10.792c19.852-1.891,39.672-4.097,59.475-6.439
			c38.184-4.518,76.306-9.553,114.516-13.854c33.943-3.82,67.192-6.978,101.337-4.627c13.772,0.948,27.516,1.786,41.328,1.288
			c16.348-0.589,32.075-3.504,48.214-5.764c22.166-3.103,44.486-3.684,66.626-7.674c7.945-1.432,16.724-2.661,23.259-7.812
			c9.229-7.275,10.375-19.398,9.272-30.311c-3.134-31.017-11.487-62.191-21.315-91.689c-20.376-61.153-51.676-118.054-87.885-171.18
			c-37.167-54.528-79.101-106.002-122.49-155.668c-48.846-55.913-100.507-109.599-145.427-168.824
			c-19.691-25.961-37.611-53.636-49.832-83.959c-12.249-30.39-17.061-62.008-16.526-94.661
			c1.111-67.844,11.544-135.626,33.244-200.002c10.738-31.857,24.231-62.758,40.451-92.209
			c16.361-29.707,36.956-55.798,55.725-83.855c17.958-26.843,20.729-54.955,7.937-84.752c-12.09-28.163-32.251-54.385-52.678-77.062
			c-19.776-21.955-43.276-41.129-71.102-51.793c-29.627-11.354-62.06-11.598-92.907-5.64
			c-65.935,12.734-127.87,50.009-181.537,88.992c-54.017,39.237-102.938,85.286-148.221,134.241
			c-32.448,35.078-57.096,76.839-87.122,113.925c-26.627,32.888-62.914,75.707-109.002,76.61
			C1141.31,519.282,1141.294,526.782,1146.13,526.687L1146.13,526.687z"/>
	</g>
</g>
</svg>