<!-- Generator: Adobe Illustrator 22.1.0, SVG Export Plug-In  -->
<svg version="1.1"
	 xmlns="http://www.w3.org/2000/svg" xmlns:xlink="http://www.w3.org/1999/xlink" xmlns:a="http://ns.adobe.com/AdobeSVGViewerExtensions/3.0/"
	 x="0px" y="0px" width="78.573px" height="131.295px" viewBox="0 0 78.573 131.295"
	 style="enable-background:new 0 0 78.573 131.295;" xml:space="preserve">
<defs>
</defs>
<g>
	<path d="M17.553,123.558c-1.159,1.977-1.483,4.061-1.279,6.235c0.084,0.889-0.185,1.286-0.862,1.436
		c-0.867,0.193-1.583-0.034-1.829-0.717c-0.24-0.667-0.532-1.414-0.446-2.081c0.303-2.364,0.209-4.806,1.173-7.056
		c0.31-0.724,0.614-1.499,1.119-2.077c0.617-0.707,0.951-1.398,0.948-2.349c-0.003-0.869,0.196-1.739,0.319-2.607
		c0.223-1.579,0.373-3.174,0.702-4.731c0.461-2.18,0.846-4.37,1.718-6.467c1.072-2.576,1.884-5.261,2.796-7.903
		c0.416-1.204,0.179-1.779-1.13-2.111c-2.731-0.693-5.278-1.812-7.792-3.048c-4.986-2.452-8.803-6.167-11.08-11.172
		c-1.665-3.66-2.302-7.651-1.175-11.688c0.749-2.686,1.264-5.46,2.62-7.94c1.409-2.577,2.372-5.423,4.57-7.549
		c-1.057-1.931-2.101-3.81-3.116-5.703c-1.077-2.009-1.943-4.053-1.033-6.399c0.138-0.355,0.078-0.791,0.088-1.19
		c0.028-1.198,0.437-2.16,1.524-2.804c0.474-0.281,0.879-0.692,1.28-1.08c0.868-0.842,1.788-1.555,2.993-1.9
		c0.866-0.248,1.013-0.654,0.64-1.44c-1.575-3.32-3.102-6.666-4.787-9.93c-1.648-3.193-3.479-6.289-4.717-9.686
		c-0.528-1.449-0.85-2.896-0.791-4.447c0.055-1.458,0.619-2.657,1.712-3.562c2.584-2.139,5.442-3.634,8.926-3.51
		c0.16,0.006,0.323,0.019,0.479-0.003c2.27-0.318,4.1,0.283,5.238,2.431c0.372,0.702,1.04,1.017,1.815,0.91
		c0.941-0.13,1.925-0.218,2.789-0.57c1.941-0.791,3.798-0.235,5.638,0.219c0.995,0.245,1.433,1.263,1.726,2.176
		c0.585,1.823,1.185,3.654,1.57,5.525c0.756,3.671,1.349,7.376,2.051,11.059c0.357,1.872,0.79,3.73,1.227,5.585
		c0.062,0.265,0.302,0.545,0.538,0.699c0.397,0.259,0.857,0.422,1.29,0.626c0.515,0.243,0.938,0.079,1.272-0.328
		c0.253-0.308,0.457-0.655,0.693-0.978c0.397-0.542,0.917-0.922,1.601-0.928c0.859-0.008,1.515-0.424,2.167-0.903
		c2.075-1.527,4.423-2.134,6.976-2.06c0.478,0.014,0.964-0.001,1.436-0.069c6.693-0.973,12.647,0.84,17.957,4.874
		c2.45,1.861,3.382,4.586,3.642,7.545c0.104,1.188-0.039,2.396-0.009,3.593c0.024,0.952-0.064,1.976,0.251,2.838
		c0.938,2.569,0.919,5.171,0.577,7.806c-0.081,0.623-0.006,1.125,0.518,1.472c1.971,1.302,2.918,3.37,3.865,5.374
		c0.849,1.797,1.441,3.721,2.089,5.608c0.471,1.371,0.47,2.802,0.518,4.25c0.159,4.797-1.422,9.127-3.474,13.303
		c-1.16,2.363-2.629,4.566-5.099,5.881c-1.471,0.783-2.862,1.715-4.287,2.584c-0.477,0.291-1.01,0.526-1.405,0.905
		c-0.72,0.69-1.449,1.19-2.521,1.132c-0.44-0.024-0.902,0.269-1.346,0.439c-0.857,0.328-1.177,0.941-1.116,1.87
		c0.166,2.548,0.29,5.099,0.395,7.65c0.148,3.606-0.293,7.173-0.818,10.728c-0.28,1.893-0.649,3.772-0.932,5.665
		c-0.068,0.456,0.011,0.946,0.088,1.409c0.078,0.471,0.173,0.958,0.372,1.386c1.155,2.473,0.763,5.008,0.314,7.535
		c-0.093,0.521-0.365,1.079-0.721,1.466c-0.402,0.437-0.846,1.134-1.573,0.864c-0.864-0.321-0.366-1.058-0.33-1.657
		c0.106-1.746,0.319-3.506-0.449-5.466c-0.557,1.371-1.558,2.067-2.596,2.709c-0.162,0.1-0.49,0.086-0.654-0.016
		c-0.172-0.108-0.355-0.398-0.333-0.584c0.095-0.791,0.226-1.582,0.416-2.355c0.234-0.953,0.561-1.881-0.589-2.516
		c-0.129-0.071-0.209-0.468-0.135-0.635c0.448-1.006,0.7-2.205,1.905-2.622c0.915-0.317,1.157-1.01,1.291-1.826
		c0.245-1.495,0.546-2.984,0.72-4.487c0.423-3.653,0.667-7.318,0.519-11c-0.07-1.753-0.134-3.507-0.241-5.258
		c-0.043-0.698-0.441-0.951-1.141-0.8c-1.482,0.319-2.962,0.65-4.44,0.987c-3.276,0.746-6.576,1.273-9.952,1.223
		c-2.878-0.043-5.759,0.019-8.633-0.099c-1.505-0.062-2.999-0.401-4.495-0.636c-1.067-0.167-1.529-0.028-1.933,0.897
		c-0.478,1.094-0.843,2.238-1.237,3.368c-0.682,1.959-1.328,3.93-2.025,5.882c-0.619,1.735-1.137,3.484-1.301,5.333
		c-0.113,1.271-0.134,2.597-0.533,3.784c-0.753,2.24,0.171,4.046,1.129,5.893c0.256,0.494,0.607,0.943,0.823,1.451
		c0.268,0.631,0.092,1.183-0.652,1.518c-0.583,0.263-0.694,0.583-0.575,1.098c0.198,0.855,0.465,1.697,0.622,2.559
		c0.145,0.795-0.471,1.407-1.276,1.334c-0.939-0.085-1.706-0.445-2.004-1.429C18.067,125.389,17.815,124.472,17.553,123.558z
		 M59.671,44.344c-0.421,0.544-0.881,1.063-1.243,1.643c-0.149,0.239-0.607,0.639-0.028,0.885c0.117,0.05,0.533-0.32,0.634-0.569
		c0.259-0.638,0.417-1.316,0.616-1.978c0.046-0.141,0.092-0.282,0.138-0.423C59.749,44.049,59.71,44.197,59.671,44.344z
		 M9.537,54.619c-0.289,0.317-0.554,0.516-0.698,0.78c-2.027,3.734-3.613,7.632-4.672,11.765C2.918,72.037,4.544,77.89,7.02,81.007
		c1.959,2.465,4.259,4.518,7.063,6.004c3.694,1.958,7.627,3.262,11.658,4.268c1.846,0.46,3.755,0.69,5.646,0.949
		c1.341,0.183,2.697,0.299,4.049,0.34c2.235,0.069,4.488,0.23,6.706,0.034c3.651-0.322,7.232-1.135,10.791-2.023
		c2.178-0.544,4.329-1.181,6.288-2.266c2.026-1.122,4.275-1.654,6.338-2.729c3.197-1.666,5.591-3.736,6.823-7.269
		c0.895-2.566,1.895-5.088,2.361-7.768c0.343-1.973,0.425-4-0.026-5.958c-0.774-3.367-2.081-6.537-3.948-9.463
		c-0.533-0.835-1.136-1.442-2.199-1.67c-1.083-0.232-1.273-0.703-0.935-1.775c0.948-3.003,0.855-5.963-0.173-8.927
		c-0.391-1.127-0.654-2.267-0.301-3.506c0.182-0.639,0.032-1.373,0.032-2.281c-0.968,0.504-1.722,0.945-2.516,1.296
		c-0.854,0.377-1.172,1.016-1.145,1.898c0.01,0.319-0.011,0.64,0.004,0.959c0.096,2.062-0.563,3.948-1.458,5.744
		c-0.304,0.609-0.842,1.196-1.422,1.551c-0.875,0.537-1.856,1.126-2.835,1.215c-1.39,0.125-2.108,0.913-2.885,1.853
		c-0.706,0.855-1.488,1.662-2.326,2.387c-0.395,0.342-1.02,0.661-1.503,0.613c-1.816-0.182-3.69-0.339-4.889-2.047
		c-0.413-0.588-0.733-1.373-1.305-1.679c-0.541-0.29-1.355-0.051-2.047-0.084c-0.313-0.015-0.624-0.115-0.933-0.193
		c-1.909-0.48-2.522-2.041-3.06-3.669c-0.208-0.629-0.228-1.234,0.027-1.866c0.834-2.065,1.636-4.144,2.462-6.212
		c0.314-0.787,0.018-1.299-0.787-1.143c-1.703,0.329-3.165-0.02-4.399-1.264c-0.096-0.097-0.272-0.115-0.412-0.169
		c-0.119,0.099-0.294,0.173-0.348,0.3c-1.003,2.355-2.082,4.679-1.247,7.378c0.162,0.524-0.085,1.285-0.368,1.818
		c-1.237,2.335-1.832,4.76-1.344,7.396c0.015,0.078,0.022,0.159,0.024,0.238c0.026,0.876-0.368,1.209-1.157,0.979
		c-1.728-0.504-2.336-1.251-2.463-3.084c-0.114-1.633,0.416-3.148,0.872-4.68c0.27-0.908,0.54-1.833,0.648-2.769
		c0.34-2.931,0.54-5.883,1.91-8.584c0.506-0.997,0.987-2.006,1.461-3.019c0.381-0.815,0.353-1.056-0.345-1.658
		c-0.411-0.354-0.887-0.733-1.394-0.856c-2.631-0.639-5.277-1.221-7.928-1.773c-0.696-0.145-1.427-0.132-2.143-0.158
		c-0.984-0.036-1.779,0.354-2.011,1.344c-0.564,2.413-2.374,3.435-4.44,4.297c-1.838,0.767-3.632,1.65-5.404,2.561
		c-0.772,0.397-1.486,0.943-2.142,1.518c-0.403,0.354-0.783,0.849-0.934,1.353c-0.567,1.896-0.549,3.774,0.529,5.528
		c0.418,0.68,0.954,1.306,1.268,2.03c0.861,1.991,1.952,3.826,3.234,5.576c0.604,0.824,1.011,1.818,1.361,2.788
		c0.133,0.367-0.034,0.955-0.264,1.315c-0.35,0.547-0.991,0.465-1.525,0.275c-0.362-0.129-0.685-0.399-0.992-0.647
		C10.264,55.332,9.938,54.994,9.537,54.619z M9.469,3.128c-1.482-0.355-3,0.561-4.509,1.485c-0.794,0.486-1.33,1.21-1.359,2.136
		C3.566,7.856,3.45,9.053,3.802,10.06c0.759,2.171,1.425,4.404,2.722,6.361c0.483,0.728,0.878,1.52,1.257,2.31
		c1.448,3.019,2.866,6.053,4.313,9.074c0.378,0.789,0.779,1.573,1.242,2.313c0.389,0.621,0.788,0.654,1.428,0.376
		c1.053-0.458,1.638-1.315,1.83-2.365c0.333-1.821,1.551-2.434,3.184-2.691c2.073-0.327,4.116,0.016,6.166,0.188
		c1.062,0.089,2.03,0.859,3.17,0.469c-0.11-1.101-0.199-2.205-0.336-3.303c-0.099-0.79-0.257-1.573-0.396-2.357
		c-0.748-4.238-1.558-8.456-2.839-12.581C24.855,5.64,23.996,5.521,22.48,5.56c-0.705,0.018-1.413,0.168-2.108,0.317
		c-0.543,0.117-1.057,0.376-1.602,0.481c-2.148,0.416-4.181,0.468-5.301-1.944c-0.033-0.071-0.094-0.128-0.14-0.194
		c-0.544-0.788-1.287-1.154-2.249-1.096C10.684,3.148,10.284,3.128,9.469,3.128z M52.141,35.273
		c-1.852-0.087-3.579,0.454-5.18,1.414c-0.808,0.485-1.721,0.894-1.259,2.201c0.121,0.343-0.252,0.888-0.454,1.315
		c-0.507,1.076-0.478,2.164-0.082,3.244c0.995,2.71,2.349,5.214,4.315,7.356c0.633,0.689,1.112,0.793,1.809,0.088
		c0.885-0.896,1.72-1.878,2.395-2.938c1.236-1.943,2.374-3.952,3.484-5.971c0.572-1.041,1.001-2.16,1.482-3.25
		c0.22-0.499,0.097-0.855-0.369-1.215C56.477,36.118,54.573,35.039,52.141,35.273z M60.863,35.491
		c0.366-2.053,1.304-3.558,2.818-4.71c0.647-0.493,0.579-0.692-0.124-1.26c-3.305-2.673-7.103-3.871-11.327-3.81
		c-1.439,0.021-2.879-0.001-4.316,0.043c-2.502,0.076-4.598,1.181-6.516,2.683c-0.246,0.192-0.375,0.535-0.029,0.816
		c0.186,0.15,0.394,0.274,0.572,0.432c1.656,1.472,2.464,3.137,1.184,5.273c-0.024,0.041,0.037,0.132,0.105,0.351
		c0.479-0.302,0.924-0.586,1.372-0.865c4.437-2.762,8.959-3.075,13.581-0.467C59.009,34.441,59.834,34.909,60.863,35.491z
		 M42.672,47.786c0.153-0.059,0.307-0.118,0.46-0.176c-0.24-0.556-0.45-1.128-0.731-1.661c-0.139-0.264-0.005-0.897-0.622-0.633
		c-0.08,0.034-0.016,0.577,0.092,0.839C42.1,46.713,42.401,47.243,42.672,47.786z"/>
</g>
</svg>