<!-- Generator: Adobe Illustrator 22.1.0, SVG Export Plug-In  -->
<svg version="1.1"
	 xmlns="http://www.w3.org/2000/svg" xmlns:xlink="http://www.w3.org/1999/xlink" xmlns:a="http://ns.adobe.com/AdobeSVGViewerExtensions/3.0/"
	 x="0px" y="0px" width="357.241px" height="60.686px" viewBox="0 0 357.241 60.686"
	 style="enable-background:new 0 0 357.241 60.686;" xml:space="preserve">
<defs>
</defs>
<g>
	<path d="M0,17.682h6.873l6.368,16.98l6.368-16.98h6.924l-9.804,24.409H9.804L0,17.682z"/>
	<path d="M43.558,17.075c7.277,0,12.23,5.458,12.23,13.442v1.415H37.645c0.404,3.083,2.881,5.66,7.025,5.66
		c2.274,0,4.953-0.909,6.519-2.426l2.83,4.145c-2.476,2.273-6.267,3.386-10.057,3.386c-7.429,0-13.039-5.003-13.039-12.837
		C30.924,22.786,36.129,17.075,43.558,17.075z M37.544,27.587h12.028c-0.152-2.325-1.769-5.408-6.014-5.408
		C39.565,22.179,37.847,25.161,37.544,27.587z"/>
	<path d="M79.99,27.334c0-3.386-1.769-4.548-4.498-4.548c-2.527,0-4.498,1.414-5.559,2.88v16.425h-6.418V17.682h6.418v3.184
		c1.567-1.87,4.548-3.79,8.541-3.79c5.357,0,7.934,3.032,7.934,7.782v17.233H79.99V27.334z"/>
	<path d="M112.329,39.008c-1.668,1.87-4.599,3.689-8.591,3.689c-5.357,0-7.884-2.931-7.884-7.682V17.682h6.418v14.808
		c0,3.386,1.769,4.497,4.498,4.497c2.476,0,4.447-1.364,5.559-2.779V17.682h6.418v24.409h-6.418V39.008z"/>
	<path d="M128.85,34.409c1.769,1.668,5.407,3.336,8.44,3.336c2.78,0,4.094-0.961,4.094-2.477c0-1.719-2.123-2.325-4.902-2.881
		c-4.195-0.809-9.602-1.819-9.602-7.631c0-4.094,3.588-7.682,10.006-7.682c4.144,0,7.429,1.415,9.804,3.335l-2.527,4.397
		c-1.466-1.567-4.245-2.83-7.227-2.83c-2.325,0-3.841,0.858-3.841,2.273c0,1.517,1.92,2.072,4.649,2.628
		c4.195,0.809,9.804,1.921,9.804,7.985c0,4.498-3.79,7.833-10.562,7.833c-4.245,0-8.339-1.415-10.916-3.79L128.85,34.409z"/>
	<path d="M182.766,17.075c5.003,0,8.035,2.173,9.653,4.447l-4.195,3.891c-1.162-1.667-2.931-2.627-5.155-2.627
		c-3.891,0-6.62,2.83-6.62,7.074c0,4.246,2.729,7.126,6.62,7.126c2.224,0,3.992-1.011,5.155-2.628l4.195,3.892
		c-1.617,2.274-4.649,4.447-9.653,4.447c-7.53,0-12.938-5.307-12.938-12.837C169.828,22.382,175.236,17.075,182.766,17.075z"/>
	<path d="M216.217,27.233c0-3.387-1.769-4.447-4.548-4.447c-2.476,0-4.447,1.414-5.559,2.88v16.425h-6.418V8.383h6.418v12.482
		c1.567-1.87,4.599-3.79,8.591-3.79c5.357,0,7.934,2.931,7.934,7.682v17.334h-6.418V27.233z"/>
	<path d="M243.148,17.075c7.277,0,12.23,5.458,12.23,13.442v1.415h-18.143c0.404,3.083,2.881,5.66,7.025,5.66
		c2.274,0,4.953-0.909,6.519-2.426l2.83,4.145c-2.476,2.273-6.267,3.386-10.057,3.386c-7.429,0-13.039-5.003-13.039-12.837
		C230.514,22.786,235.719,17.075,243.148,17.075z M237.134,27.587h12.028c-0.152-2.325-1.769-5.408-6.014-5.408
		C239.156,22.179,237.437,25.161,237.134,27.587z"/>
	<path d="M279.58,39.008c-1.668,1.87-4.599,3.689-8.591,3.689c-5.357,0-7.884-2.931-7.884-7.682V17.682h6.418v14.808
		c0,3.386,1.769,4.497,4.498,4.497c2.476,0,4.447-1.364,5.559-2.779V17.682h6.418v24.409h-6.418V39.008z"/>
	<path d="M311.919,27.334c0-3.386-1.769-4.548-4.498-4.548c-2.527,0-4.498,1.414-5.559,2.88v16.425h-6.418V17.682h6.418v3.184
		c1.567-1.87,4.548-3.79,8.541-3.79c5.357,0,7.934,3.032,7.934,7.782v17.233h-6.418V27.334z"/>
	<path d="M330.158,43.708c1.971,2.173,4.548,3.032,7.631,3.032c3.083,0,6.722-1.364,6.722-6.165v-2.477
		c-1.92,2.426-4.548,3.841-7.53,3.841c-6.115,0-10.764-4.296-10.764-12.433c0-7.984,4.599-12.432,10.764-12.432
		c2.932,0,5.56,1.264,7.53,3.739v-3.133h6.469v22.741c0,9.299-7.176,11.573-13.19,11.573c-4.194,0-7.479-0.96-10.511-3.639
		L330.158,43.708z M344.51,25.565c-1.062-1.617-3.386-2.779-5.509-2.779c-3.639,0-6.165,2.526-6.165,6.721
		c0,4.195,2.526,6.722,6.165,6.722c2.123,0,4.447-1.213,5.509-2.779V25.565z"/>
</g>
</svg>