<!-- Generator: Adobe Illustrator 22.1.0, SVG Export Plug-In  -->
<svg version="1.1"
	 xmlns="http://www.w3.org/2000/svg" xmlns:xlink="http://www.w3.org/1999/xlink" xmlns:a="http://ns.adobe.com/AdobeSVGViewerExtensions/3.0/"
	 x="0px" y="0px" width="162.348px" height="171.254px" viewBox="0 0 162.348 171.254"
	 style="enable-background:new 0 0 162.348 171.254;" xml:space="preserve">
<style type="text/css">
	.st0{fill:none;stroke:#000000;stroke-linecap:round;stroke-linejoin:round;stroke-miterlimit:10;}
</style>
<defs>
</defs>
<path class="st0" d="M60.802,37.627c13.22-5.868,14.888-25.397,27.095-33.28c5.35-3.455,12.742-3.815,18.785-3.813
	c2.14,0,4.515-0.345,6.309,1.188c1.633,1.395,2.823,3.953,4.002,5.78c1.801,2.79,3.795,5.271,5.158,8.333
	c2.02,4.537,2.842,9.53,5.167,13.922c2.479,4.684,5.765,8.28,9.174,12.171c2.745,3.133,5.201,6.59,7.894,9.783
	c2.779,3.294,5.03,7.025,8.202,9.907c3.26,2.962,5.78,6.831,7.28,11.117c0.515,1.473,0.562,3.064,1.117,4.493
	c0.686,1.767,1.04,3.368,0.773,5.385c-0.619,4.685-4.444,7.825-7.511,10.646c-1.352,1.243-2.285,2.921-3.552,4.219
	c-1.64,1.681-3.861,3.099-5.75,4.451c-6.598,4.724-13.283,10.586-13.631,19.758c-0.409,10.769,0.898,21.374,0.6,32.131
	c-0.139,5.006-4.702,8.963-8.6,11.178c-4.436,2.521-9.19,5.164-14.336,5.594c-1.979,0.165-4.389,0.258-6.334,0.014
	c-2.418-0.303-4.767-1.897-6.897-3.136c-2.049-1.191-3.874-2.594-5.558-4.316c-1.994-2.039-3.132-4.513-4.703-6.937
	c-2.638-4.067-4.313-8.671-6.91-12.753c-2.254-3.542-6.059-5.277-9.907-5.704c-1.933-0.215-4.049,0.021-5.993,0.046
	c-2.212,0.029-4.269-0.676-6.492-0.647c-4.996,0.066-10.084-0.788-14.993-1.689c-4.72-0.866-9.27-1.635-13.661-3.83
	c-1.733-0.866-3.26-2.284-4.573-3.742c-1.592-1.768-3.795-2.794-4.742-5.086c-1.554-3.762-2.155-7.66-2.138-11.743
	c0.007-1.699-0.26-3.619,0.116-5.29c0.513-2.275,2.155-4.263,3.326-6.17c2.625-4.272,5.911-8.65,7.034-13.756
	c0.502-2.282,1.4-4.69,1.593-7.021c1.14-13.794-2.913-26.396-13.216-35.671c-2.41-2.169-7.335-2.266-10.308-1.688
	c-0.939,0.183-1.746,0.801-2.794,0.537c-1.464-0.369-1.214-1.013-1.245-2.517c-0.033-1.606-0.221-3.475,0.098-5.05
	c0.48-2.372,2.314-5.841,4.059-7.354c5.707-4.945,15.962,5.797,20.538,8.729c1.608,1.03,3.737,1.485,5.579,1.976
	c4.536,1.209,9.466,1.685,14.17,1.688c3.729,0.002,7.458,0,11.187,0C57.928,39.481,59.089,37.655,60.802,37.627"/>
</svg>