<!-- Generator: Adobe Illustrator 22.1.0, SVG Export Plug-In  -->
<svg version="1.1"
	 xmlns="http://www.w3.org/2000/svg" xmlns:xlink="http://www.w3.org/1999/xlink" xmlns:a="http://ns.adobe.com/AdobeSVGViewerExtensions/3.0/"
	 x="0px" y="0px" width="11.26px" height="15.611px" viewBox="0 0 11.26 15.611" style="enable-background:new 0 0 11.26 15.611;"
	 xml:space="preserve">
<style type="text/css">
	.st0{fill:none;stroke:#000000;stroke-linecap:round;stroke-linejoin:round;stroke-miterlimit:10;}
</style>
<defs>
</defs>
<path class="st0" d="M0.695,6.07c0.04-0.315-0.107-0.581-0.158-0.88C0.479,4.856,0.522,4.503,0.522,4.166
	c0-0.658-0.037-1.278,0.33-1.856c0.435-0.686,1.364-1.262,2.064-1.623C3.473,0.399,4.227,0.53,4.852,0.53
	c1.198,0,2.241-0.017,3.035,1.031c0.949,1.253,1.052,2.751,1.591,4.163c0.254,0.665,0.571,1.417,1.007,1.982
	c0.394,0.511,0.247,1.145,0.251,1.78c0.012,1.795-0.924,3.229-2.25,4.379c-0.574,0.498-1.152,1.002-1.909,1.173
	c-0.466,0.106-1.14,0.074-1.62,0.041c-1.255-0.086-2.199-1.285-2.971-2.169c-0.231-0.264-0.325-0.569-0.508-0.868
	c-0.2-0.326-0.421-0.584-0.532-0.954c-0.162-0.538-0.182-1.094-0.245-1.645C0.673,9.192,0.544,8.993,0.515,8.741
	C0.478,8.414,0.522,8.06,0.522,7.73c0-0.611,0-1.222,0-1.833"/>
</svg>