<!-- Generator: Adobe Illustrator 22.1.0, SVG Export Plug-In  -->
<svg version="1.1"
	 xmlns="http://www.w3.org/2000/svg" xmlns:xlink="http://www.w3.org/1999/xlink" xmlns:a="http://ns.adobe.com/AdobeSVGViewerExtensions/3.0/"
	 x="0px" y="0px" width="126.095px" height="85.109px" viewBox="0 0 126.095 85.109"
	 style="enable-background:new 0 0 126.095 85.109;" xml:space="preserve">
<defs>
</defs>
<g>
	<path d="M98.137,7.471c-0.221-1.277-0.08-3.177,0.094-5.076c0.022-0.238,0.017-0.479,0.028-0.719
		c0.037-0.802,0.411-1.371,1.188-1.616c0.628-0.198,1.44,0.095,1.747,0.923c0.711,1.92,2.012,3.379,3.355,4.834
		c0.84,0.91,1.255,2.026,1.532,3.207c0.164,0.7,0.32,1.402,0.493,2.099c0.797,3.213,0.782,3.228,2.955,5.559
		c0.98,1.051,2.051,2.016,3.059,3.041c0.89,0.906,1.93,1.356,3.218,1.312c1.197-0.041,2.398-0.003,3.597,0.026
		c2.15,0.051,4.03,0.904,5.813,2.018c0.198,0.124,0.36,0.313,0.518,0.489c0.489,0.545,0.483,1.224-0.041,1.706
		c-0.231,0.212-0.5,0.449-0.789,0.52c-1.039,0.254-1.891,0.685-2.515,1.636c-0.272,0.414-0.895,0.668-1.41,0.839
		c-1.285,0.426-2.592,0.793-3.905,1.126c-1.676,0.425-2.503,1.466-2.118,3.136c0.497,2.156,0.706,4.357,1.683,6.445
		c0.805,1.719,0.551,3.75,0.247,5.672c-0.724,4.587-3.003,8.372-5.999,11.792c-3.81,4.349-8.457,7.53-13.797,9.687
		c-2.288,0.924-4.522,2.009-6.959,2.553c-0.606,0.135-1.164,0.497-1.731,0.78c-0.283,0.141-0.518,0.417-0.811,0.496
		c-0.584,0.157-1.433-0.254-1.717,0.454c-0.215,0.536,0.051,1.247-0.001,1.871c-0.08,0.952-0.272,1.894-0.372,2.845
		c-0.055,0.525,0.177,0.907,0.725,1.083c0.607,0.195,1.21,0.411,1.793,0.668c0.92,0.405,1.522,1.141,1.968,2.019
		c0.235,0.462,0.271,0.911-0.073,1.34c-0.331,0.413-0.799,0.609-1.275,0.459c-0.517-0.163-1.049-0.412-1.456-0.762
		c-0.584-0.501-1.03-0.472-1.703-0.121c-1.082,0.565-1.279,0.463-2.015-0.437c-0.548-0.67-1.34-1.302-1.519-2.068
		c-0.18-0.771,0.271-1.687,0.43-2.542c0.087-0.471,0.127-0.951,0.214-1.422c0.309-1.671,0.296-1.737-1.234-1.344
		c-0.823,0.212-1.92-0.27-2.436,0.615c-0.384,0.659-0.381,1.537-0.595,2.304c-0.278,0.999-0.617,1.981-0.899,2.979
		c-0.234,0.827-0.113,1.135,0.593,1.621c0.46,0.316,0.907,0.741,1.422,0.868c1.874,0.462,3.04,2.023,4.648,2.89
		c0.268,0.144,0.509,0.702,0.444,0.998c-0.066,0.297-0.493,0.633-0.827,0.732c-1.077,0.319-2.03-0.141-2.961-0.636
		c-0.842-0.448-1.697-0.871-2.541-1.314c-0.648-0.34-1.214-0.311-1.693,0.304c-0.094,0.12-0.249,0.2-0.388,0.276
		c-1.009,0.546-2.067,0.147-2.188-0.946c-0.174-1.58-0.394-3.183,0.052-4.763c0.26-0.922,0.565-1.831,0.816-2.755
		c0.166-0.61,0.338-1.231,0.392-1.857c0.11-1.278-0.059-1.498-1.249-1.958c-2.751-1.064-5.547-1.985-8.358-2.88
		c-1.569-0.5-3.029-1.427-4.438-2.32c-2.492-1.581-5.057-3.112-6.647-5.748c-0.436-0.722-1.1-0.902-1.86-0.772
		c-1.568,0.267-3.145,0.509-4.691,0.875c-3.181,0.752-6.309,1.8-9.524,2.322c-4.68,0.76-9.092,2.4-13.622,3.651
		c-3.994,1.103-7.961,2.301-11.949,3.427c-0.995,0.281-2.016,0.478-3.036,0.653c-1.122,0.193-2.231,0.122-3.275-0.405
		c-0.741-0.374-1.396-0.829-1.416-1.763c-0.015-0.67-0.309-1.009-0.978-1.119c-0.628-0.103-1.271-0.228-1.851-0.475
		c-0.644-0.275-1.308-0.61-1.812-1.08c-0.795-0.742-0.583-1.889,0.344-2.417c0.207-0.118,0.44-0.19,0.661-0.282
		c4.937-2.061,10.013-3.738,15.072-5.464c2.943-1.005,5.865-2.087,8.847-2.961c4.587-1.345,9.219-2.535,13.829-3.801
		c1.843-0.506,3.688-1.011,5.51-1.585c0.428-0.135,0.822-0.499,1.137-0.844c0.915-1,1.785-2.042,2.666-3.073
		c1.289-1.509,2.386-3.193,4.078-4.332c0.456-0.307,0.809-0.768,1.21-1.158c1.783-1.733,3.761-3.2,5.942-4.398
		c0.486-0.267,0.943-0.594,1.389-0.925c2.89-2.149,6.172-3.291,9.701-3.806c0.473-0.069,0.946-0.181,1.421-0.193
		c2.157-0.053,3.826-1.423,5.743-2.12c1.971-0.717,3.958-1.213,6.06-1.274c0.785-0.023,1.564-0.207,2.349-0.29
		c0.596-0.063,1.057-0.317,1.401-0.806c0.57-0.81,1.2-1.515,2.344-1.333c0.141,0.022,0.342-0.028,0.444-0.122
		c1.586-1.445,3.737-2.189,5.012-4.007c0.359-0.512,0.622-1.102,0.871-1.68c0.343-0.796,0.654-1.608,0.932-2.428
		c0.151-0.445,0.262-0.92,0.29-1.388C97.883,12.724,97.988,10.411,98.137,7.471z M99.793,23.037
		c-0.769,1.01-1.544,2.016-2.306,3.032c-0.363,0.485-0.323,0.935,0.183,1.193c0.48,0.245,1.029,0.515,1.542,0.506
		c1.637-0.029,3.369,0.316,4.791-0.899c1.348-0.159,2.335-0.977,3.263-1.855c0.847-0.801,0.815-2.524-0.132-3.157
		c-1.452-0.972-2.597-2.094-2.825-3.918c-0.009-0.071-0.08-0.135-0.121-0.203c-0.445-0.745-1.415-0.908-2.037-0.316
		c-0.225,0.215-0.426,0.478-0.567,0.755c-0.796,1.559-1.63,3.108-1.814,4.895L99.793,23.037z M46.982,52.81
		c1.59,0.185,3.166-0.048,4.716-0.308c3.061-0.514,6.101-1.153,9.151-1.728c2.821-0.532,5.647-1.035,8.466-1.575
		c3.611-0.692,7.057-1.988,10.592-2.96c1.838-0.505,3.595-1.333,4.763-3.035c0.292-0.426,0.819-0.782,1.313-0.958
		c1.017-0.361,1.964,0.572,1.7,1.597c-0.206,0.799-0.614,1.463-1.297,1.955c-1.559,1.121-3.12,2.208-5.002,2.774
		c-0.817,0.245-1.664,0.641-2.298,1.197c-1.756,1.541-3.666,2.839-5.722,3.915c-0.909,0.476-1.906,0.806-2.892,1.109
		c-0.989,0.304-2.004,0.548-3.024,0.719c-2.838,0.474-5.34,2.078-8.238,2.391c-0.619,0.067-1.711,0.025-1.796,0.825
		c-0.059,0.554,0.567,1.266,1.033,1.773c1.66,1.81,3.804,2.875,6.058,3.754c2.526,0.986,5.076,1.92,7.554,3.018
		c1.824,0.808,3.593,1.591,5.606,1.966c1.852,0.345,3.436,0.131,5.103-0.573c1.391-0.587,2.831-1.261,4.299-1.416
		c1.878-0.199,3.567-0.825,5.265-1.503c1.631-0.652,3.231-1.382,4.837-2.096c3.473-1.545,6.471-3.797,9.276-6.32
		c0.855-0.769,1.611-1.638,2.046-2.747c-1.188,0.08-2.214,0.266-3.22,0.188c-1.22-0.095-1.914-1.015-1.625-2.16
		c0.567-2.243,0.404-4.447-0.163-6.635c-0.649-2.503-1.639-4.837-3.581-6.663c-0.632-0.594-1.319-0.857-2.172-0.747
		c-0.629,0.081-1.273,0.243-1.891,0.178c-2.139-0.225-4.259-0.427-6.421-0.152c-1.847,0.235-3.338-0.864-3.075-2.966
		c0.208-1.659,0.46-3.321,0.841-4.947c0.417-1.78,0.389-1.871-1.505-1.56c-0.236,0.039-0.467,0.126-0.704,0.146
		c-2.533,0.215-4.822,0.999-6.742,2.741c-0.607,0.55-1.383,0.766-2.222,0.75c-1.6-0.031-3.175,0.278-4.757,0.403
		c-3.144,0.249-5.89,1.405-8.427,3.132c-3.444,2.345-6.504,5.164-9.489,8.052c-1.375,1.33-2.58,2.836-3.864,4.261
		c-0.597,0.663-1.647,1.087-1.128,2.33c0.073,0.175-0.25,0.546-0.437,0.79c-0.289,0.377-0.62,0.722-0.932,1.08
		c-0.118,0.089-0.237,0.179-0.355,0.268C46.743,52.985,46.863,52.898,46.982,52.81z M107.386,49.4c0,0.39-0.006,0.779,0.006,1.169
		c0.002,0.067,0.081,0.188,0.122,0.187c0.131-0.004,0.325-0.011,0.378-0.093c0.216-0.331,0.385-0.692,0.577-1.04
		c1.344-2.435,2.08-5.174,3.741-7.457c0.26-0.358,0.423-0.903,0.386-1.34c-0.153-1.809-0.371-3.614-0.62-5.414
		c-0.241-1.737-0.502-3.456-0.036-5.205c0.208-0.781-0.263-1.385-0.966-1.234c-1.618,0.348-3.293,0.648-4.279,2.242
		c-0.794,1.284-1.581,2.574-2.425,3.825c-0.521,0.772-1.144,1.476-1.721,2.211c0.562,0.768,1.127,1.534,1.687,2.304
		c0.187,0.257,0.375,0.516,0.542,0.787C106.484,43.12,107.139,46.206,107.386,49.4z M97.42,35.856
		c0.608-0.264,1.626-0.667,2.598-1.159c0.221-0.112,0.428-0.553,0.394-0.81c-0.12-0.9-0.648-1.589-1.367-2.134
		c-0.559-0.423-1.039-0.067-1.546,0.133c-0.735,0.289-1.472,0.572-2.22,0.824c-0.545,0.183-0.712,0.584-0.714,1.092
		C94.561,34.999,95.609,35.898,97.42,35.856z"/>
	<path d="M99.769,23.069c0.337-0.44,0.623-0.933,1.021-1.309c1.455-1.373,2.446-1.175,3.581-0.328
		c0.843,0.63,1.351,1.289,1.224,2.381c-0.09,0.777-0.428,1.345-1.102,1.728c-1.034,0.588-2.11,0.7-3.205,0.22
		c-1.18-0.518-1.566-1.505-1.497-2.726L99.769,23.069z"/>
</g>
</svg>