<!-- Generator: Adobe Illustrator 22.1.0, SVG Export Plug-In  -->
<svg version="1.1"
	 xmlns="http://www.w3.org/2000/svg" xmlns:xlink="http://www.w3.org/1999/xlink" xmlns:a="http://ns.adobe.com/AdobeSVGViewerExtensions/3.0/"
	 x="0px" y="0px" width="297.779px" height="248.096px" viewBox="0 0 297.779 248.096"
	 style="enable-background:new 0 0 297.779 248.096;" xml:space="preserve">
<style type="text/css">
	.st0{fill:none;stroke:#000000;stroke-miterlimit:10;}
</style>
<defs>
</defs>
<g>
	<path class="st0" d="M62.079,129.507c21.122-9.342,0.771-64.337,4.643-80.902c3.72-15.913,16.523-28.681,30.511-38.466
		c8.218-5.749,18.103-10.992,28.227-9.326c6.02,0.991,11.279,4.332,15.978,7.972c8.977,6.954,16.685,15.323,22.697,24.643
		c6.429,9.966,11.391,21.492,21.766,27.964c12.072,7.531,27.86,6.071,42.389,5.765c22.313-0.47,46.857,3.558,61.218,19.457
		c3.947,4.369,6.986,9.627,7.635,15.303c1.609,14.086-11.284,25.803-24.046,33.523c-12.762,7.72-27.49,14.878-33.393,27.934
		c-7.016,15.518,1.141,33.436-1.745,50.055c-2.87,16.527-17.779,30.636-35.488,33.582c-17.709,2.946-36.947-5.481-45.792-20.059
		c-1.284-2.116-2.388-4.371-4.168-6.149c-3.722-3.719-9.787-4.659-15.174-3.83c-5.388,0.83-10.35,3.152-15.386,5.118
		c-16.28,6.356-35.673,8.94-51.166,1.061c-8.852-4.502-16.108-14.521-11.857-23.035c2.009-4.024,6.113-6.74,9.069-10.221
		c5.824-6.858,6.467-17.648,0.137-24.105c-3.208-3.272-7.714-5.154-11.382-7.977C47.292,150.535,52.743,134.873,62.079,129.507"/>
	<path class="st0" d="M0.711,104.248c0,1.55,0.004,3.1,0,4.65c-0.002,0.856,0.097,1.641,0.22,2.485
		c0.075,0.515,0.319,0.944,0.477,1.437c0.171,0.534,0.245,1.025,0.526,1.526c0.419,0.749,0.757,1.568,1.222,2.29
		c0.494,0.767,1.221,1.224,2.054,1.609c1.894,0.878,3.828,1.435,5.886,1.857c1.54,0.315,2.983,0.524,4.561,0.524
		c0.575,0,1.15-0.003,1.724,0.002c0.897,0.008,1.685-0.291,2.565-0.383c1.377-0.144,2.862-0.763,4.093-1.333
		c1.473-0.683,2.756-1.506,4.092-2.424c1.701-1.168,2.922-2.626,4.095-4.237c0.572-0.785,0.953-1.694,1.328-2.574
		c0.45-1.056,0.949-2.078,1.186-3.197c0.222-1.045,0.358-2.145,0.35-3.21c-0.007-0.878,0.053-1.796-0.401-2.603
		c-0.315-0.56-0.775-1.04-1.079-1.608c-0.283-0.53-0.824-1.158-1.277-1.579c-0.475-0.442-1.11-0.739-1.627-1.136
		c-0.542-0.415-0.955-0.798-1.598-1.09c-0.674-0.306-1.249-0.646-1.95-0.909c-0.713-0.268-1.456-0.46-2.197-0.667
		c-1.711-0.479-3.442-0.866-5.232-0.856c-1.921,0.01-3.816-0.046-5.719,0.165c-1.199,0.133-2.398,0.419-3.503,0.882
		c-1.805,0.757-3.753,1.419-5.337,2.553c-1.831,1.311-2.344,3.116-3.756,4.684c-0.325,0.362-0.43,1.044-0.508,1.517
		c-0.051,0.312-0.022,0.553-0.143,0.864c-0.123,0.315-0.304,0.605-0.261,0.952"/>
</g>
</svg>