<!-- Generator: Adobe Illustrator 22.1.0, SVG Export Plug-In  -->
<svg version="1.1"
	 xmlns="http://www.w3.org/2000/svg" xmlns:xlink="http://www.w3.org/1999/xlink" xmlns:a="http://ns.adobe.com/AdobeSVGViewerExtensions/3.0/"
	 x="0px" y="0px" width="22.313px" height="48.333px" viewBox="0 0 22.313 48.333"
	 style="enable-background:new 0 0 22.313 48.333;" xml:space="preserve">
<style type="text/css">
	.st0{fill:none;stroke:#000000;stroke-linecap:round;stroke-linejoin:round;stroke-miterlimit:10;}
</style>
<defs>
</defs>
<path class="st0" d="M1.426,35.194c0-5.204,0.237-7.844-0.658-12.905c-0.458-2.593-0.19-5.379-0.188-8.015
	c0.001-2.679-0.283-5.306,0.601-7.848c1.679-4.83,6.899-5.888,11.437-5.923c3.794-0.03,5.119,0.107,7.461,3.385
	c1.521,2.129,2.01,3.693,1.592,6.304c-0.409,2.553-1.6,4.535-1.638,7.199c-0.042,2.966-0.742,5.583-0.868,8.472
	c-0.194,4.42,1.701,12.205-1.201,15.685c-1.818,2.18-3.473,2.774-6.033,3.768c-1.916,0.744-4.71,3.499-6.734,2.153
	c-1.314-0.873-1.62-4.356-1.998-5.895c-0.274-1.115-0.081-2.211-0.471-3.346C2.363,37.163,1.54,36.355,1.426,35.194"/>
</svg>